<svg width="427" height="427" viewBox="0 0 427 427" fill="none" xmlns="http://www.w3.org/2000/svg">
<path d="M427 0H0V427H427V0Z" fill="#141414"/>
<path d="M106.58 97.0782C117.955 91.3983 131.743 95.8545 137.675 107.018L137.952 107.555L213.229 258.316L259.105 169.46C264.938 158.162 278.699 153.625 290.075 159.138L290.615 159.408C301.913 165.241 306.45 179.002 300.937 190.378L300.667 190.918L233.662 320.701C224.975 337.527 201.024 337.545 192.235 320.961L191.957 320.42L96.1037 128.45C90.3337 116.894 95.0241 102.848 106.58 97.0782Z" fill="white"/>
<path d="M308.731 142.364C322.185 142.364 333.092 131.457 333.092 118.002C333.092 104.547 322.185 93.6404 308.731 93.6404C295.276 93.6404 284.369 104.547 284.369 118.002C284.369 131.457 295.276 142.364 308.731 142.364Z" fill="#0A84FF"/>
</svg>
