<?xml version="1.0" encoding="UTF-8"?>
<svg width="300px" height="258px" viewBox="0 0 300 258" version="1.1" xmlns="http://www.w3.org/2000/svg" xmlns:xlink="http://www.w3.org/1999/xlink">
    <title>VISION1@2x</title>
    <g id="页面-1" stroke="none" stroke-width="1" fill="none" fill-rule="evenodd">
        <g id="vision" transform="translate(-42.000000, -213.000000)">
            <g id="VISION1" transform="translate(42.500000, 213.500000)">
                <path d="M77.2176938,18.0550696 C69.0194831,21.7053678 60.8212724,26.1335984 55.0765408,33.0751491 C49.3318091,40.0166998 46.4594433,50.0101392 49.8703777,58.3878728 C54.4781312,69.5781312 69.0793241,76.0409543 69.139165,88.188668 C69.199006,96.8656064 61.240159,103.507952 53.2214712,106.619682 C45.2027833,109.791252 36.3463221,110.928231 29.1055666,115.535984 C18.154672,122.537376 13.0083499,136.00159 10.8540755,148.927237 C8.63996024,162.33161 9.53757455,177.591054 18.9326044,187.345129 C30.6015905,199.433002 49.9302187,198.05666 66.506163,195.483499 C88.5874751,192.072565 110.549105,188.00338 132.510736,183.934195 C180.682704,175.077734 228.854672,166.221272 277.02664,157.364811 C282.172962,156.407356 287.558648,155.39006 291.747515,152.218489 C300.065408,145.875348 300.783499,132.83002 295.936382,123.554672 C291.089264,114.219483 282.113121,107.876342 273.25666,102.430815 C264.340358,96.9852883 254.945328,91.7791252 248.302982,83.6407555 C241.600795,75.5622266 238.309543,63.5940358 243.396024,54.3785288 C247.704573,46.5992048 256.860239,42.410338 260.869583,34.4514911 C266.135586,23.9793241 260.09165,10.5749503 250.517097,3.93260437 C240.882704,-2.82942346 120.662227,-1.15387674 77.2176938,18.0550696 Z" id="Path" fill="#F7F6F6" fill-rule="nonzero"></path>
                <path d="M289.952286,256.940159 L3.8526839,256.940159 C1.99761431,256.940159 0.501590457,255.444135 0.501590457,253.589066 L0.501590457,236.833598 C0.501590457,234.978529 1.99761431,233.482505 3.8526839,233.482505 L289.952286,233.482505 C291.807356,233.482505 293.30338,234.978529 293.30338,236.833598 L293.30338,253.589066 C293.30338,255.384294 291.807356,256.940159 289.952286,256.940159 Z" id="Path" fill="#F1F1F1" fill-rule="nonzero"></path>
                <g id="Group" transform="translate(258.834990, 187.584493)" fill-rule="nonzero">
                    <g id="Path">
                        <path d="M15.8578529,34.049503 C13.9429423,25.1930417 8.13836978,17.2940358 0.179522863,12.8059642 C4.42823062,20.7648111 9.45487078,28.3646123 15.2594433,35.2463221 L15.8578529,34.049503 Z" fill="#2A94F4"></path>
                        <path d="M17.9522863,37.3407555 C10.412326,26.8087475 6.64234592,13.6437376 7.42027833,0.718091451 C12.2673956,12.6862823 15.9775348,25.0733598 18.4310139,37.6998012 L17.9522863,37.3407555 Z" fill="#2A94F4"></path>
                        <path d="M15.7980119,37.6998012 C15.5586481,31.2369781 15.3192843,24.7143141 16.3365805,18.311332 C17.3538767,11.9083499 19.687674,5.56520875 24.0560636,0.777932406 C24.7143141,14.0626243 21.5427435,27.466998 14.9003976,39.0163022 L15.7980119,37.6998012 Z" fill="#2A94F4"></path>
                        <path d="M16.0972167,38.2982107 C11.8485089,26.0308151 12.5666004,12.1477137 18.0121272,0.41888668 C21.4230616,12.6862823 18.371173,25.7914513 15.3791252,38.1785288 L16.0972167,38.2982107 Z" fill="#B2DFF8"></path>
                        <path d="M16.6956262,33.7502982 C17.8924453,22.9789264 25.0135189,13.105169 34.8872763,8.67693837 C30.8779324,19.3884692 24.0560636,29.0228628 15.2594433,36.3833002 L16.6956262,33.7502982 Z" fill="#2A94F4"></path>
                    </g>
                    <path d="M26.8087475,31.8952286 L25.6119284,52.7797217 C25.6119284,53.7970179 24.7741551,54.6347913 23.7568588,54.6347913 L9.27534791,54.6347913 C8.25805169,54.6347913 7.42027833,53.7970179 7.42027833,52.7797217 L7.18091451,48.0522863 L6.22345924,31.8952286 C6.22345924,30.8779324 7.0612326,30.040159 8.07852883,30.040159 L24.9536779,30.040159 C25.6119284,30.040159 26.210338,30.3992048 26.5095427,30.9377734 L26.5095427,30.9377734 C26.7489066,31.1771372 26.8087475,31.5361829 26.8087475,31.8952286 Z" id="Path" fill="#FABB56"></path>
                </g>
                <g id="Group" transform="translate(3.912525, 158.262425)" fill-rule="nonzero">
                    <g id="Path">
                        <path d="M24.6544732,52.1813121 C21.7222664,38.5375746 12.6862823,26.2701789 0.538568588,19.4483101 C7.0612326,31.7755467 14.9003976,43.3846918 23.7568588,54.0962227 L24.6544732,52.1813121 Z" fill="#2A94F4"></path>
                        <path d="M27.8858847,57.3276342 C16.2767396,41.1107356 10.472167,20.8246521 11.6689861,0.897614314 C19.2089463,19.2687873 24.893837,38.4178926 28.6039761,57.9260437 L27.8858847,57.3276342 Z" fill="#2A94F4"></path>
                        <path d="M24.5946322,57.9260437 C24.2355865,47.9326044 23.8765408,37.8793241 25.4324056,28.0055666 C26.9882704,18.1318091 30.6385686,8.3777336 37.3407555,0.957455268 C38.3580517,21.4230616 33.3912525,42.1280318 23.2781312,59.9007952 L24.5946322,57.9260437 Z" fill="#2A94F4"></path>
                        <path d="M25.0135189,58.8236581 C18.4908549,39.9139165 19.567992,18.5506958 27.9457256,0.41888668 C33.1518887,19.3884692 28.5441352,39.4950298 23.8765408,58.5842942 L25.0135189,58.8236581 Z" fill="#B2DFF8"></path>
                        <path d="M25.9111332,51.8222664 C27.7063618,35.2463221 38.7769384,20.0467197 53.9765408,13.1650099 C47.8129225,29.6811133 37.2809145,44.5815109 23.7568588,55.8914513 L25.9111332,51.8222664 Z" fill="#2A94F4"></path>
                    </g>
                    <path d="M41.5296223,48.8900596 L39.6147117,81.084493 C39.6147117,82.6403579 38.3580517,83.8970179 36.8021869,83.8970179 L14.5413519,83.8970179 C12.9854871,83.8970179 11.728827,82.6403579 11.728827,81.084493 L11.3099404,73.8437376 L9.87375746,48.9499006 C9.87375746,47.3940358 11.1304175,46.1373757 12.6862823,46.1373757 L38.7769384,46.1373757 C39.7942346,46.1373757 40.6918489,46.6759443 41.1705765,47.5137177 L41.1705765,47.5137177 C41.4099404,47.8727634 41.5296223,48.3514911 41.5296223,48.8900596 Z" id="Path" fill="#FABB56"></path>
                </g>
                <g id="To_Do_List" transform="translate(154.113320, 37.982107)" fill-rule="nonzero">
                    <g id="Group">
                        <polygon id="Rectangle" fill="#007AFF" transform="translate(44.017729, 71.243956) rotate(-0.366094) translate(-44.017729, -71.243956) " points="0.422703426 13.4064935 87.6127536 13.4064935 87.6127536 129.081419 0.422703426 129.081419"></polygon>
                        <polygon id="Path" fill="#030809" opacity="0.26" points="7.30059642 124.349503 8.61709742 124.349503 85.6324056 126.204573 82.8797217 16.8153082 79.3491054 17.8924453"></polygon>
                        <polygon id="Rectangle" fill="#EEEEEF" transform="translate(44.047529, 70.585490) rotate(-0.366100) translate(-44.047529, -70.585490) " points="4.85090348 17.0566639 83.2441539 17.0566639 83.2441539 124.114317 4.85090348 124.114317"></polygon>
                        <polygon id="Path" fill="#010102" opacity="0.05" points="4.06918489 16.9349901 60.4393638 16.5759443 4.24870775 64.089662"></polygon>
                        <g transform="translate(26.330020, 0.000000)">
                            <polygon id="Rectangle" fill="#01384F" opacity="0.12" transform="translate(17.388450, 18.103856) rotate(-0.366097) translate(-17.388450, -18.103856) " points="0.363351109 16.5180388 34.4135492 16.5180388 34.4135492 19.6896741 0.363351109 19.6896741"></polygon>
                            <path d="M27.3473161,6.82186879 L26.8087475,6.82186879 L26.8087475,6.46282306 C26.8087475,3.11172962 23.6371769,0.41888668 19.8073559,0.478727634 L14.7208748,0.538568588 C10.8910537,0.538568588 7.77932406,3.29125249 7.77932406,6.64234592 L7.77932406,7.00139165 L7.24075547,7.00139165 C3.41093439,7.00139165 0.299204771,9.75407555 0.299204771,13.105169 L0.359045726,19.8671968 L34.4085487,19.627833 L34.3487078,12.8658052 C34.3487078,9.51471173 31.1771372,6.82186879 27.3473161,6.82186879 Z M21.7821074,7.00139165 L12.8059642,7.0612326 C11.9083499,7.0612326 11.1304175,6.34314115 11.1304175,5.38568588 C11.1304175,4.48807157 11.8485089,3.71013917 12.8059642,3.71013917 L21.7821074,3.65029821 C22.6797217,3.65029821 23.4576541,4.36838966 23.4576541,5.32584493 C23.4576541,6.2833002 22.6797217,7.00139165 21.7821074,7.00139165 Z" id="Shape" fill="#007AFF"></path>
                        </g>
                    </g>
                </g>
                <g id="Group" transform="translate(164.098745, 71.000000)">
                    <g id="Group-7" transform="translate(0.000000, 0.032597)">
                        <path d="M63.8819485,14.8081276 L37.7874959,14.8081276 C35.9877723,14.8081276 34.5629912,13.3083579 34.5629912,11.5836229 C34.5629912,9.78389936 36.0627608,8.35911822 37.7874959,8.35911822 L63.8819485,8.35911822 C65.681672,8.35911822 67.1064531,9.85888784 67.1064531,11.5836229 C67.1064531,13.3833464 65.681672,14.8081276 63.8819485,14.8081276 Z" id="Path-Copy-3" fill="#FFFFFF" fill-rule="nonzero"></path>
                        <path d="M63.8819485,37.8081276 L3.78749586,37.8081276 C1.98777233,37.8081276 0.562991195,36.3083579 0.562991195,34.5836229 C0.562991195,32.7838994 2.06276081,31.3591182 3.78749586,31.3591182 L63.8819485,31.3591182 C65.681672,31.3591182 67.1064531,32.8588878 67.1064531,34.5836229 C67.1064531,36.3833464 65.681672,37.8081276 63.8819485,37.8081276 Z" id="Path-Copy-3" fill="#FFFFFF" fill-rule="nonzero"></path>
                        <path d="M63.8819485,50.8081276 L3.78749586,50.8081276 C1.98777233,50.8081276 0.562991195,49.3083579 0.562991195,47.5836229 C0.562991195,45.7838994 2.06276081,44.3591182 3.78749586,44.3591182 L63.8819485,44.3591182 C65.681672,44.3591182 67.1064531,45.8588878 67.1064531,47.5836229 C67.1064531,49.3833464 65.681672,50.8081276 63.8819485,50.8081276 Z" id="Path-Copy-3" fill="#FFFFFF" fill-rule="nonzero"></path>
                        <path d="M26.8819485,78.8081276 L3.78749586,78.8081276 C1.98777233,78.8081276 0.562991195,77.3083579 0.562991195,75.5836229 C0.562991195,73.7838994 2.06276081,72.3591182 3.78749586,72.3591182 L26.8819485,72.3591182 C28.681672,72.3591182 30.1064531,73.8588878 30.1064531,75.5836229 C30.1064531,77.3833464 28.681672,78.8081276 26.8819485,78.8081276 Z" id="Path-Copy-3" fill="#FFFFFF" fill-rule="nonzero"></path>
                        <g id="Group-6" transform="translate(44.698069, 62.346883)" fill="#FFFFFF" fill-rule="nonzero">
                            <g id="Group-5" transform="translate(0.322415, 0.174084)">
                                <path d="M11.25,0 C17.4632034,0 22.5,5.03679656 22.5,11.25 C22.5,17.4632034 17.4632034,22.5 11.25,22.5 C5.03679656,22.5 1.8189894e-12,17.4632034 1.8189894e-12,11.25 C1.8189894e-12,5.03679656 5.03679656,0 11.25,0 Z M11.25,3 C6.69365081,3 3,6.69365081 3,11.25 C3,15.8063492 6.69365081,19.5 11.25,19.5 C15.8063492,19.5 19.5,15.8063492 19.5,11.25 C19.5,6.69365081 15.8063492,3 11.25,3 Z" id="Oval"></path>
                                <path d="M15.3250846,9.75 C16.1535117,9.75 16.8250846,10.4215729 16.8250846,11.25 C16.8250846,12.0296961 16.2301965,12.6704487 15.4695446,12.7431334 L15.3250846,12.75 L7.17491538,12.75 C6.34648826,12.75 5.67491538,12.0784271 5.67491538,11.25 C5.67491538,10.4703039 6.26980346,9.82955132 7.03045537,9.75686658 L7.17491538,9.75 L15.3250846,9.75 Z" id="Line"></path>
                                <path d="M11.25,5.97172689 C12.0296961,5.97172689 12.6704487,6.56661498 12.7431334,7.32726688 L12.75,7.47172689 L12.75,15.3250846 C12.75,16.1535117 12.0784271,16.8250846 11.25,16.8250846 C10.4703039,16.8250846 9.82955132,16.2301965 9.75686658,15.4695446 L9.75,15.3250846 L9.75,7.47172689 C9.75,6.64329977 10.4215729,5.97172689 11.25,5.97172689 Z" id="Line-Copy"></path>
                            </g>
                        </g>
                        <polygon id="Path" fill="#FFBE55" opacity="0.600000024" points="11.908393 0.283622892 15.4711318 8.16483308 23.7841891 8.92056557 17.1985204 15.0384 19.2497942 22.8836229 11.908393 18.3132407 4.56699169 22.8836229 6.61826558 15.0384 0.032596786 8.92056557 8.34565411 8.16483308"></polygon>
                    </g>
                </g>
                <g id="Girl" transform="translate(55.600000, 77.400000)" fill-rule="nonzero">
                    <g id="Girl_1_">
                        <g id="Group" transform="translate(66.594433, 30.184891)">
                            <g transform="translate(0.000000, 35.904573)">
                                <line x1="40.7516899" y1="3.23141153" x2="40.7516899" y2="101.191054" id="Path" stroke="#1F120C" stroke-width="1.9084" fill="#004970"></line>
                                <rect id="Rectangle" fill="#007AFF" x="0.0598409543" y="0.478727634" width="81.3836978" height="5.38568588"></rect>
                            </g>
                            <g transform="translate(16.157058, 0.000000)" fill="#020102" id="Path">
                                <path d="M42.6666004,36.0242545 L2.39363817,36.0242545 C1.19681909,36.0242545 0.239363817,35.0667992 0.239363817,33.8699801 L0.239363817,33.8699801 C0.239363817,32.673161 1.19681909,31.7157058 2.39363817,31.7157058 L42.6666004,31.7157058 C43.8634195,31.7157058 44.8208748,32.673161 44.8208748,33.8699801 L44.8208748,33.8699801 C44.8208748,35.0667992 43.8634195,36.0242545 42.6666004,36.0242545 Z"></path>
                                <path d="M42.9658052,34.5282306 C42.8461233,34.5282306 42.7264414,34.4683897 42.6067594,34.4085487 C42.3075547,34.2290258 42.2477137,33.8101392 42.4272366,33.5109344 L62.833002,0.83777336 C63.0125249,0.538568588 63.4314115,0.478727634 63.7306163,0.658250497 C64.0298211,0.83777336 64.089662,1.25666004 63.9101392,1.55586481 L43.5043738,34.2290258 C43.3846918,34.4085487 43.205169,34.5282306 42.9658052,34.5282306 Z"></path>
                            </g>
                        </g>
                        <g id="Group">
                            <g transform="translate(0.769384, 82.844930)">
                                <g transform="translate(8.976143, 0.000000)" id="Path">
                                    <g transform="translate(8.377734, 0.000000)">
                                        <path d="M22.3206759,0.41888668 L64.7479125,1.49602386 C71.928827,1.79522863 77.3145129,8.25805169 76.2972167,15.3791252 L76.2972167,15.3791252 C75.3996024,21.3033797 70.3131213,25.7316103 64.3290258,25.7316103 L13.8831014,25.7316103 C13.8831014,25.7316103 -4.30854871,19.2687873 1.4361829,3.59045726 L22.3206759,0.41888668 Z" fill="#4385B7"></path>
                                        <g transform="translate(44.282306, 14.960239)">
                                            <g transform="translate(1.196819, 27.526839)">
                                                <g transform="translate(0.000000, 25.731610)">
                                                    <path d="M21.004175,9.57455268 L28.0654076,13.045328 C28.84334,13.4043738 29.2622266,14.2421471 29.0228628,15.0799205 C28.84334,15.738171 28.2449304,16.2168986 26.6292247,16.2168986 C23.0986083,16.2767396 7.65964215,13.9429423 7.65964215,13.9429423 L7.65964215,15.5586481 L0.478727634,14.7208748 C0.478727634,14.7208748 3.39173134e-14,6.52266402 2.15427435,5.26600398 L21.004175,9.57455268 Z" fill="#000000"></path>
                                                    <path d="M9.57455268,1.31650099 L21.004175,9.57455268 C21.004175,9.57455268 19.8073559,12.6862823 14.361829,10.5918489 C8.97614314,8.49741551 2.15427435,5.32584493 2.15427435,5.32584493 L3.17157058,0.41888668 L9.57455268,1.31650099 Z" fill="#EFBEAB"></path>
                                                </g>
                                                <polygon fill="#EFBEAB" points="2.21411531 31.0574553 9.09582505 0.0598409543 20.4656064 1.13697813 10.8312127 29.9803181"></polygon>
                                            </g>
                                            <polygon fill="#4385B7" points="31.9550696 0.41888668 22.3805169 51.4033797 0.538568588 51.4033797 8.97614314 1.25666004"></polygon>
                                        </g>
                                    </g>
                                    <g>
                                        <path d="M32.733002,0.41888668 L64.6880716,1.49602386 C71.8689861,1.79522863 77.254672,8.25805169 76.2373757,15.3791252 L76.2373757,15.3791252 C75.3397614,21.3033797 70.2532803,25.7316103 64.2691849,25.7316103 L13.8232604,25.7316103 C13.8232604,25.7316103 -4.36838966,19.2687873 1.37634195,3.59045726 L32.733002,0.41888668 Z" fill="#007AFF"></path>
                                        <g transform="translate(44.282306, 14.960239)">
                                            <g transform="translate(1.196819, 27.526839)">
                                                <g transform="translate(0.000000, 25.731610)">
                                                    <path d="M21.004175,9.57455268 L28.0654076,13.045328 C28.84334,13.4043738 29.2622266,14.2421471 29.0228628,15.0799205 C28.84334,15.738171 28.2449304,16.2168986 26.6292247,16.2168986 C23.0986083,16.2767396 7.65964215,13.9429423 7.65964215,13.9429423 L7.65964215,15.5586481 L0.478727634,14.7208748 C0.478727634,14.7208748 3.39728246e-14,6.52266402 2.15427435,5.26600398 L21.004175,9.57455268 Z" fill="#000000"></path>
                                                    <path d="M9.57455268,1.31650099 L21.004175,9.57455268 C21.004175,9.57455268 19.8073559,12.6862823 14.361829,10.5918489 C8.97614314,8.49741551 2.15427435,5.32584493 2.15427435,5.32584493 L3.17157058,0.41888668 L9.57455268,1.31650099 Z" fill="#FACBB6"></path>
                                                </g>
                                                <polygon fill="#FACBB6" points="2.21411531 31.0574553 9.09582505 0.0598409543 20.5254473 1.13697813 10.8312127 29.9803181"></polygon>
                                            </g>
                                            <polygon fill="#007AFF" points="31.9550696 0.41888668 22.3805169 51.4033797 0.538568588 51.4033797 8.97614314 1.25666004"></polygon>
                                        </g>
                                    </g>
                                </g>
                                <g transform="translate(0.000000, 25.133201)">
                                    <g transform="translate(3.590457, 5.385686)" fill="#DAD8DE">
                                        <rect id="Rectangle" x="18.2514911" y="0.359045726" width="6.82186879" height="37.6399602"></rect>
                                        <polygon id="Path" points="19.9868787 33.2117296 0.41888668 42.1280318 0.658250497 44.6413519 21.1238569 38.0588469"></polygon>
                                        <polygon id="Path" points="23.3379722 33.2117296 42.9658052 42.1280318 42.6666004 44.6413519 22.200994 38.0588469"></polygon>
                                    </g>
                                    <circle id="Oval" fill="#010102" cx="4.8471173" cy="54.5151093" r="4.66759443"></circle>
                                    <circle id="Oval" fill="#010102" cx="46.5562624" cy="54.5151093" r="4.66759443"></circle>
                                    <path d="M44.52167,8.3777336 L4.9667992,8.3777336 C2.7526839,8.3777336 1.01729622,6.58250497 1.01729622,4.42823062 L1.01729622,4.42823062 C1.01729622,2.21411531 2.81252485,0.478727634 4.9667992,0.478727634 L44.52167,0.478727634 C46.7357853,0.478727634 48.471173,2.27395626 48.471173,4.42823062 L48.471173,4.42823062 C48.471173,6.64234592 46.7357853,8.3777336 44.52167,8.3777336 Z" id="Path" fill="#007AFF"></path>
                                </g>
                            </g>
                            <g transform="translate(10.942346, 32.578529)" id="Path">
                                <g transform="translate(17.353877, 4.787276)">
                                    <path d="M11.9083499,0.299204771 L28.7236581,22.9789264 C31.2369781,26.3300199 30.8180915,31.0574553 27.8260437,33.989662 L27.8260437,33.989662 C24.1757455,37.5202783 18.2514911,37.0415507 15.2594433,32.9723658 L0.239363817,12.6264414 L11.9083499,0.299204771 Z" fill="#ECA646"></path>
                                    <g transform="translate(18.550696, 4.787276)">
                                        <path d="M24.6544732,7.12107356 C24.6544732,7.12107356 27.7063618,1.49602386 32.7928429,0.179522863 C36.7423459,-0.83777336 40.0335984,5.20616302 41.2902584,7.89900596 C41.5894632,8.55725646 41.2304175,9.33518887 40.572167,9.51471173 L40.572167,9.51471173 C40.1532803,9.63439364 39.7343936,9.45487078 39.4950298,9.09582505 L38.1186879,7.24075547 C38.1186879,7.24075547 38.3580517,11.3099404 34.8872763,10.8910537 C31.416501,10.532008 30.2795229,9.21550696 30.2795229,9.21550696 L26.3898608,11.9083499 L24.6544732,7.12107356 Z" fill="#FACBB6"></path>
                                        <polygon fill="#ECA646" points="0.538568588 18.5506958 25.0135189 2.03459245 31.5361829 11.8485089 6.22345924 31.2968191"></polygon>
                                    </g>
                                </g>
                                <path d="M29.9204771,0.179522863 C29.9204771,0.179522863 18.9097416,4.48807157 11.0705765,19.7475149 C3.23141153,35.0069583 0.179522863,53.8568588 0.179522863,53.8568588 C0.179522863,53.8568588 14.7208748,57.9260437 31.5361829,50.6852883 L37.5202783,31.7157058 C37.5202783,31.7157058 42.7264414,25.6119284 37.5202783,6.58250497 L29.9204771,0.179522863 Z" fill="#FFBE55"></path>
                                <g transform="translate(19.747515, 7.180915)">
                                    <g transform="translate(20.944334, 10.771372)">
                                        <path d="M25.5520875,4.8471173 C25.5520875,4.8471173 29.7409543,0.119681909 35.0069583,0.119681909 C39.0761431,0.119681909 40.9910537,6.76202783 41.5894632,9.75407555 C41.7689861,10.472167 41.2304175,11.1304175 40.572167,11.1304175 L40.572167,11.1304175 C40.1532803,11.1304175 39.7942346,10.8910537 39.6147117,10.472167 L38.6572565,8.31789264 C38.6572565,8.31789264 38.0588469,12.3272366 34.7675944,11.1304175 C31.4763419,9.87375746 30.6984095,8.31789264 30.6984095,8.31789264 L26.3300199,9.99343936 L25.5520875,4.8471173 Z" fill="#FACBB6"></path>
                                        <polygon fill="#FFBE55" points="0.538568588 11.6091451 28.1850895 1.19681909 32.2542744 12.3272366 3.11172962 25.3127237"></polygon>
                                    </g>
                                    <path d="M11.6689861,0.41888668 L28.4842942,23.0986083 C30.9976143,26.4497018 30.5787276,31.1771372 27.5866799,34.1093439 L27.5866799,34.1093439 C23.9363817,37.6399602 18.0121272,37.1612326 15.0200795,33.0920477 L0,12.7461233 L11.6689861,0.41888668 Z" fill="#FFBE55"></path>
                                </g>
                            </g>
                            <g transform="translate(34.000000, 0.000000)">
                                <g id="Group-3" transform="translate(6.862823, 4.570591)">
                                    <path d="M14.361829,17.7152936 L21.7821074,17.9546575 C25.7316103,22.0836833 24.2355865,30.0425302 24.2355865,30.0425302 L12.2075547,26.5717549 L14.361829,17.7152936 Z" id="Path" fill="#000000"></path>
                                    <polygon id="Path" fill="#FACBB6" points="15.1996024 23.5797072 7.59980119 34.5904427 -6.76791956e-13 28.1874606 11.0705765 12.2099258"></polygon>
                                    <polygon id="Path" fill="#EFBEAA" points="11.1304175 29.4441207 11.1902584 21.9640014 14.42167 24.7166853"></polygon>
                                    <path d="M24.833996,1.37871312 C24.833996,1.37871312 29.8606362,3.77235129 28.2449304,10.4745382 C28.2449304,10.4745382 26.9882704,15.3216555 25.1930417,22.2632062 C24.2355865,25.9135044 20.0467197,27.9480968 16.6956262,26.1528682 C14.6610338,25.0158901 12.4469185,23.4001843 10.7713718,21.126228 L8.55725646,17.4160889 C3.76998012,7.4226495 13.9429423,-3.40856322 24.1159046,1.01966739 C24.3552684,1.1393493 24.5946322,1.25903121 24.833996,1.37871312 Z" id="Path" fill="#FACBB6"></path>
                                    <path d="M25.6717694,17.236566 L27.4071571,20.2286137 C27.6465209,20.6475004 27.2874751,21.126228 26.8087475,21.0663871 L24.3552684,20.6475004 L25.6717694,17.236566 Z" id="Path" fill="#FACBB6"></path>
                                </g>
                                <path d="M21.284493,15.8230616 C21.284493,15.8230616 22.8403579,-1.17176938 34.8085487,9.42007952 C34.8085487,9.42007952 31.9361829,-0.932405567 18.2326044,0.862823062 C15.3602386,1.22186879 11.7697813,3.61550696 10.5131213,6.18866799 C8.47852883,10.4373757 9.85487078,14.9254473 11.7697813,23.0638171 L17.9932406,18.9946322 C18.5916501,17.977336 21.284493,15.8230616 21.284493,15.8230616 Z" id="Path" fill="#000000"></path>
                                <path d="M18.1727634,9.8389662 L19.0105368,17.2592445 C38.399006,16.8403579 32.7141153,6.18866799 32.7141153,6.18866799 C32.7141153,6.18866799 19.5491054,-2.24890656 18.1727634,9.8389662 Z" id="Path" fill="#000000"></path>
                                <polygon id="Path" fill="#000000" points="26.1914513 15.5836978 22.600994 18.5757455 20.7459245 13.3097416"></polygon>
                                <path d="M29.9015905,6.3083499 C29.9015905,6.3083499 35.706163,9.0610338 35.3471173,13.5491054 C35.3471173,13.5491054 41.5705765,10.0184891 32.2353877,5.05168986 C26.7300199,2.1194831 29.9015905,6.3083499 29.9015905,6.3083499 Z" id="Path" fill="#000000"></path>
                                <path d="M19.1302187,19.293837 C19.1302187,19.293837 15.6594433,27.0133201 15.5996024,30.1250497 L0.938568588,25.0385686 C0.938568588,25.0385686 5.18727634,20.550497 6.56361829,16.600994 C7.64075547,13.4294235 8.17932406,5.70994036 14.5224652,2.17932406 L14.2232604,12.4719682 L19.1302187,19.293837 Z" id="Path" fill="#000000"></path>
                                <g transform="translate(15.240557, 14.027833)" fill="#FACBB6" id="Path">
                                    <path d="M0.478727634,2.57316103 C-0.239363817,4.48807157 0.718091451,6.58250497 2.57316103,7.30059642 C4.48807157,8.01868787 6.58250497,7.0612326 7.30059642,5.20616302 C8.01868787,3.29125249 7.0612326,1.19681909 5.20616302,0.478727634 C3.29125249,-0.299204771 1.19681909,0.658250497 0.478727634,2.57316103 Z"></path>
                                </g>
                                <path d="M6.86282306,32.7580517 C6.86282306,32.7580517 9.19662028,39.5799205 15.2405567,42.1530815 L13.505169,34.5532803 L6.86282306,32.7580517 Z" id="Path" fill="#FACBB6"></path>
                            </g>
                        </g>
                    </g>
                </g>
            </g>
        </g>
    </g>
</svg>