<?xml version="1.0" encoding="UTF-8"?>
<svg width="255px" height="228px" viewBox="0 0 255 228" version="1.1" xmlns="http://www.w3.org/2000/svg" xmlns:xlink="http://www.w3.org/1999/xlink">
    <title>MANAGEROKR@2x</title>
    <g id="页面-1" stroke="none" stroke-width="1" fill="none" fill-rule="evenodd">
        <g id="2-OKR" transform="translate(-60.000000, -244.000000)">
            <g id="MANAGEROKR" transform="translate(60.000000, 244.422664)">
                <path d="M214.187111,81.1903333 C231.669071,81.1903333 245.841,67.0184045 245.841,49.5364444 C245.841,32.0544843 231.669071,17.8825556 214.187111,17.8825556 C196.705151,17.8825556 182.533222,32.0544843 182.533222,49.5364444 C182.533222,67.0184045 196.705151,81.1903333 214.187111,81.1903333 Z" id="Oval" stroke="#C1C1C1" stroke-dasharray="11.9518,11.9518"></path>
                <path d="M197.187333,37.2784444 C204.173889,39.7502222 211.135222,42.7516667 216.028333,47.4682222 C220.921444,52.1847778 223.368,58.9695556 220.442222,64.6445556 C216.507556,72.2364444 204.098222,76.6503333 204.022556,84.8727778 C203.972111,90.7495556 210.731667,95.2643333 217.541667,97.383 C224.351667,99.5268889 231.893111,100.283556 238.072556,103.411111 C247.404778,108.127667 251.793444,117.258111 253.584222,126.035444 C255.450667,135.140667 254.694,145.507 246.698556,152.09 C236.786222,160.312444 220.341333,159.404444 206.292556,157.638889 C187.527222,155.293222 168.837556,152.569222 150.147889,149.82 C109.187,143.817111 68.2261111,137.789 27.2652222,131.786111 C22.8765556,131.130333 18.3113333,130.424111 14.7297778,128.280222 C7.64233333,123.992444 7.037,115.139444 11.1734444,108.808667 C15.2846667,102.477889 22.9017778,98.1901111 30.4684444,94.4824444 C38.0351111,90.7747778 46.0305556,87.2436667 51.7055556,81.7452222 C57.3805556,76.2467778 60.2054444,68.1252222 55.8924444,61.8701111 C52.2604444,56.5734444 44.4415556,53.7485556 41.0365556,48.351 C36.547,41.2383333 41.7175556,32.1835556 49.8391111,27.6435556 C57.9606667,23.1035556 160.211556,24.2385556 197.187333,37.2784444 Z" id="Path" fill="#F7F7F7" fill-rule="nonzero"></path>
                <path d="M248.211889,226.899111 L4.51477778,226.899111 C3.20322222,226.899111 2.11866667,225.814556 2.11866667,224.503 L2.11866667,215.372556 C2.11866667,214.061 3.20322222,212.976444 4.51477778,212.976444 L248.211889,212.976444 C249.523444,212.976444 250.608,214.061 250.608,215.372556 L250.608,224.503 C250.608,225.814556 249.523444,226.899111 248.211889,226.899111 Z" id="Path" fill="#F2F2F2" fill-rule="nonzero"></path>
                <g id="Group" transform="translate(22.637778, 0.000000)">
                    <g transform="translate(7.124444, 0.000000)" fill-rule="nonzero" id="Path">
                        <path d="M107.471889,219.937778 L14.301,219.937778 C6.48211111,219.937778 0.126111111,213.607 0.126111111,205.762889 L0.126111111,14.1748889 C0.126111111,6.356 6.45688889,-3.58429336e-15 14.301,-3.58429336e-15 L107.471889,-3.58429336e-15 C115.290778,-3.58429336e-15 121.646778,6.33077778 121.646778,14.1748889 L121.646778,205.788111 C121.621556,213.607 115.290778,219.937778 107.471889,219.937778 Z" fill="#007AFF"></path>
                        <path d="M106.286444,213.228667 L15.4864444,213.228667 C10.7194444,213.228667 6.86044444,209.369667 6.86044444,204.602667 L6.86044444,15.7638889 C6.86044444,10.9968889 10.7194444,7.13788889 15.4864444,7.13788889 L106.286444,7.13788889 C111.053444,7.13788889 114.912567,10.9968889 114.912567,15.7638889 L114.912567,204.602667 C114.937667,209.369667 111.053444,213.228667 106.286444,213.228667 Z" fill="#FFFFFF"></path>
                        <path d="M26.332,6.28033333 L31.9817778,13.4686667 C34.2517778,16.344 37.5558889,18.0086667 41.0617778,18.0086667 L80.3075556,18.0086667 C83.8134444,18.0086667 87.1175556,16.344 89.3875556,13.4686667 L95.0373333,6.28033333 L26.332,6.28033333 Z" fill="#B6E7FF"></path>
                    </g>
                    <g transform="translate(0.000000, 21.691111)" fill-rule="nonzero">
                        <path d="M4.40378287,9.73577778 L138.736217,9.73577778 C140.994309,9.73577778 142.82,11.6526667 142.82,14.0235556 L142.82,43.3022222 C142.82,45.6731111 140.994309,47.59 138.736217,47.59 L4.40378287,47.59 C2.14569117,47.59 0.32,45.6731111 0.32,43.3022222 L0.32,14.0235556 C0.32,11.6526667 2.14569117,9.73577778 4.40378287,9.73577778 Z" id="Path" fill="#5AB8FF"></path>
                        <g transform="translate(21.248889, 20.403333)">
                            <path d="M21.9242929,3.02666667 L1.51333333,3.02666667 C0.681,3.02666667 2.80664381e-13,2.34566667 2.80664381e-13,1.51333333 C2.80664381e-13,0.681 0.681,-1.13242749e-14 1.51333333,-1.13242749e-14 L21.9242929,-1.13242749e-14 C22.7566262,-1.13242749e-14 23.4376262,0.681 23.4376262,1.51333333 C23.4376262,2.34566667 22.7566262,3.02666667 21.9242929,3.02666667 Z" id="Path" fill="#B6E7FF"></path>
                            <path d="M79.45,14.6288889 L71.0390405,14.6288889 C70.2067071,14.6288889 69.5257071,13.9478889 69.5257071,13.1155556 C69.5257071,12.2832222 70.2067071,11.6022222 71.0390405,11.6022222 L79.45,11.6022222 C80.2823333,11.6022222 80.9633333,12.2832222 80.9633333,13.1155556 C80.9633333,13.9478889 80.2823333,14.6288889 79.45,14.6288889 Z" id="Path-Copy-2" fill="#B6E7FF"></path>
                            <path d="M79.45,3.02666667 L49.0124244,3.02666667 C48.1800911,3.02666667 47.4990911,2.34566667 47.4990911,1.51333333 C47.4990911,0.681 48.1800911,0 49.0124244,0 L79.45,0 C80.2823333,0 80.9633333,0.681 80.9633333,1.51333333 C80.9633333,2.34566667 80.2823333,3.02666667 79.45,3.02666667 Z" id="Path-Copy" fill="#B6E7FF"></path>
                            <path d="M65.5891801,14.6288889 L1.51333333,14.6288889 C0.681,14.6288889 0,13.9478889 0,13.1155556 C0,12.2832222 0.681,11.6022222 1.51333333,11.6022222 L65.5891801,11.6022222 C66.4215134,11.6022222 67.1025134,12.2832222 67.1025134,13.1155556 C67.1025134,13.9478889 66.4215134,14.6288889 65.5891801,14.6288889 Z" id="Path" fill="#B6E7FF"></path>
                            <path d="M44.9068715,14.6288889 L1.51333333,14.6288889 C0.681,14.6288889 0,13.9478889 0,13.1155556 C0,12.2832222 0.681,11.6022222 1.51333333,11.6022222 L44.9068715,11.6022222 C45.7392049,11.6022222 46.4202049,12.2832222 46.4202049,13.1155556 C46.4202049,13.9478889 45.7392049,14.6288889 44.9068715,14.6288889 Z" id="Path" fill="#FFBE55"></path>
                        </g>
                        <polygon id="Path" fill="#FFBE55" points="128.695556 0.227 135.707333 15.6377778 151.975667 17.1511111 139.112333 29.1316667 143.097444 44.5172222 128.695556 35.5885556 114.293667 44.5172222 118.278778 29.1316667 105.415444 17.1511111 121.683778 15.6377778"></polygon>
                    </g>
                    <g transform="translate(19.695556, 97.841111)">
                        <path d="M3.10233333,0.126111111 L42.377,0.126111111 C44.0668889,0.126111111 45.4288889,1.48811111 45.4288889,3.178 L45.4288889,37.9077778 C45.4288889,39.5976667 44.0668889,40.9596667 42.377,40.9596667 L3.10233333,40.9596667 C1.41244444,40.9596667 0.0504444444,39.5976667 0.0504444444,37.9077778 L0.0504444444,3.178 C0.0252222222,1.48811111 1.41244444,0.126111111 3.10233333,0.126111111 Z" id="Path" fill="#8AD2FF" fill-rule="nonzero"></path>
                        <path d="M3.10233333,0.126111111 L29.377,0.126111111 C29.377,0.126111111 29.377,40.9596667 29.377,40.9596667 L3.10233333,40.9596667 C1.41244444,40.9596667 0.0504444444,39.5976667 0.0504444444,37.9077778 L0.0504444444,3.178 C0.0252222222,1.48811111 1.41244444,0.126111111 3.10233333,0.126111111 Z" id="Path" fill="#5AB8FF" fill-rule="nonzero"></path>
                        <g transform="translate(1.739333, 2.042889)" id="Group-7">
                            <g transform="translate(0.000000, 0.500000)">
                                <g id="Group-4" transform="translate(0.865444, 12.858623)" fill="#B6E7FF" fill-rule="nonzero">
                                    <path d="M38.4773349,2.16911111 L1.08455556,2.16911111 C0.479222222,2.16911111 0,1.66466667 0,1.08455556 C0,0.479222222 0.504444444,0 1.08455556,0 L38.4773349,0 C39.0826682,0 39.5618904,0.504444444 39.5618904,1.08455556 C39.5618904,1.68988889 39.0826682,2.16911111 38.4773349,2.16911111 Z" id="Path"></path>
                                    <path d="M38.4773349,8.38122222 L1.08455556,8.38122222 C0.479222222,8.38122222 -2.66453526e-13,7.87677778 -2.66453526e-13,7.29666667 C-2.66453526e-13,6.69133333 0.504444444,6.21211111 1.08455556,6.21211111 L38.4773349,6.21211111 C39.0826682,6.21211111 39.5618904,6.71655556 39.5618904,7.29666667 C39.5618904,7.87677778 39.0826682,8.38122222 38.4773349,8.38122222 Z" id="Path"></path>
                                </g>
                                <path d="M39.3641477,4.94820122 L30.5873319,4.94820122 C29.9819986,4.94820122 29.5027764,4.44375678 29.5027764,3.86364567 C29.5027764,3.25831234 30.0072208,2.77909011 30.5873319,2.77909011 L39.3641477,2.77909011 C39.9694811,2.77909011 40.4487033,3.28353456 40.4487033,3.86364567 C40.4487033,4.468979 39.9694811,4.94820122 39.3641477,4.94820122 Z" id="Path-Copy-3" fill="#B6E7FF" fill-rule="nonzero"></path>
                                <g id="Group-6" transform="translate(0.897700, 25.424482)" fill="#B6E7FF" fill-rule="nonzero">
                                    <path d="M8.40577778,6.16911111 L1.08455556,6.16911111 C0.479222222,6.16911111 0,5.66466667 0,5.08455556 C0,4.47922222 0.504444444,4 1.08455556,4 L8.40577778,4 C9.01111111,4 9.49033333,4.50444444 9.49033333,5.08455556 C9.49033333,5.68988889 9.01111111,6.16911111 8.40577778,6.16911111 Z" id="Path-Copy-4"></path>
                                    <g id="Group-5" transform="translate(31.268967, 0.584556)">
                                        <path d="M4.1410183,0 C6.42803956,0 8.28203661,1.85399705 8.28203661,4.1410183 C8.28203661,6.42803956 6.42803956,8.28203661 4.1410183,8.28203661 C1.85399705,8.28203661 9.09494702e-13,6.42803956 9.09494702e-13,4.1410183 C9.09494702e-13,1.85399705 1.85399705,0 4.1410183,0 Z M4.1410183,1 C2.4062818,1 1,2.4062818 1,4.1410183 C1,5.87575481 2.4062818,7.28203661 4.1410183,7.28203661 C5.87575481,7.28203661 7.28203661,5.87575481 7.28203661,4.1410183 C7.28203661,2.4062818 5.87575481,1 4.1410183,1 Z" id="Oval"></path>
                                        <path d="M5.6410183,3.6410183 C5.91716068,3.6410183 6.1410183,3.86487593 6.1410183,4.1410183 C6.1410183,4.38647819 5.96414314,4.59062668 5.73089394,4.63296264 L5.6410183,4.6410183 L2.6410183,4.6410183 C2.36487593,4.6410183 2.1410183,4.41716068 2.1410183,4.1410183 C2.1410183,3.89555842 2.31789347,3.69140993 2.55114267,3.64907397 L2.6410183,3.6410183 L5.6410183,3.6410183 Z" id="Line"></path>
                                        <path d="M4.1410183,2.25027181 C4.38647819,2.25027181 4.59062668,2.42714697 4.63296264,2.66039617 L4.6410183,2.75027181 L4.6410183,5.6410183 C4.6410183,5.91716068 4.41716068,6.1410183 4.1410183,6.1410183 C3.89555842,6.1410183 3.69140993,5.96414314 3.64907397,5.73089394 L3.6410183,5.6410183 L3.6410183,2.75027181 C3.6410183,2.47412943 3.86487593,2.25027181 4.1410183,2.25027181 Z" id="Line-Copy"></path>
                                    </g>
                                </g>
                                <polygon id="Path" fill="#FFBE55" opacity="0.600000024" points="4.38238349 0.169498959 5.54709853 2.74598982 8.26476697 2.99305058 6.11180886 4.99306632 6.78240237 7.55779238 4.38238349 6.06366298 1.9823646 7.55779238 2.65295811 4.99306632 0.5 2.99305058 3.21766844 2.74598982"></polygon>
                            </g>
                        </g>
                    </g>
                    <g id="Group-Copy-2" transform="translate(19.695556, 143.841111)">
                        <path d="M3.10233333,0.126111111 L42.377,0.126111111 C44.0668889,0.126111111 45.4288889,1.48811111 45.4288889,3.178 L45.4288889,37.9077778 C45.4288889,39.5976667 44.0668889,40.9596667 42.377,40.9596667 L3.10233333,40.9596667 C1.41244444,40.9596667 0.0504444444,39.5976667 0.0504444444,37.9077778 L0.0504444444,3.178 C0.0252222222,1.48811111 1.41244444,0.126111111 3.10233333,0.126111111 Z" id="Path" fill="#8AD2FF" fill-rule="nonzero"></path>
                        <path d="M3.10233333,0.126111111 L29.377,0.126111111 C29.377,0.126111111 29.377,40.9596667 29.377,40.9596667 L3.10233333,40.9596667 C1.41244444,40.9596667 0.0504444444,39.5976667 0.0504444444,37.9077778 L0.0504444444,3.178 C0.0252222222,1.48811111 1.41244444,0.126111111 3.10233333,0.126111111 Z" id="Path" fill="#5AB8FF" fill-rule="nonzero"></path>
                        <g id="Group" transform="translate(1.739333, 2.042889)">
                            <g id="Group-7" transform="translate(0.000000, 0.500000)">
                                <g id="Group-4" transform="translate(0.865444, 12.858623)" fill="#B6E7FF" fill-rule="nonzero">
                                    <path d="M38.4773349,2.16911111 L1.08455556,2.16911111 C0.479222222,2.16911111 0,1.66466667 0,1.08455556 C0,0.479222222 0.504444444,0 1.08455556,0 L38.4773349,0 C39.0826682,0 39.5618904,0.504444444 39.5618904,1.08455556 C39.5618904,1.68988889 39.0826682,2.16911111 38.4773349,2.16911111 Z" id="Path"></path>
                                    <path d="M38.4773349,8.38122222 L1.08455556,8.38122222 C0.479222222,8.38122222 -2.66453526e-13,7.87677778 -2.66453526e-13,7.29666667 C-2.66453526e-13,6.69133333 0.504444444,6.21211111 1.08455556,6.21211111 L38.4773349,6.21211111 C39.0826682,6.21211111 39.5618904,6.71655556 39.5618904,7.29666667 C39.5618904,7.87677778 39.0826682,8.38122222 38.4773349,8.38122222 Z" id="Path"></path>
                                </g>
                                <path d="M39.3641477,4.94820122 L30.5873319,4.94820122 C29.9819986,4.94820122 29.5027764,4.44375678 29.5027764,3.86364567 C29.5027764,3.25831234 30.0072208,2.77909011 30.5873319,2.77909011 L39.3641477,2.77909011 C39.9694811,2.77909011 40.4487033,3.28353456 40.4487033,3.86364567 C40.4487033,4.468979 39.9694811,4.94820122 39.3641477,4.94820122 Z" id="Path-Copy-3" fill="#B6E7FF" fill-rule="nonzero"></path>
                                <g id="Group-6" transform="translate(0.897700, 25.424482)" fill="#B6E7FF" fill-rule="nonzero">
                                    <path d="M8.40577778,6.16911111 L1.08455556,6.16911111 C0.479222222,6.16911111 0,5.66466667 0,5.08455556 C0,4.47922222 0.504444444,4 1.08455556,4 L8.40577778,4 C9.01111111,4 9.49033333,4.50444444 9.49033333,5.08455556 C9.49033333,5.68988889 9.01111111,6.16911111 8.40577778,6.16911111 Z" id="Path-Copy-4"></path>
                                    <g id="Group-5" transform="translate(31.268967, 0.584556)">
                                        <path d="M4.1410183,0 C6.42803956,0 8.28203661,1.85399705 8.28203661,4.1410183 C8.28203661,6.42803956 6.42803956,8.28203661 4.1410183,8.28203661 C1.85399705,8.28203661 9.09494702e-13,6.42803956 9.09494702e-13,4.1410183 C9.09494702e-13,1.85399705 1.85399705,0 4.1410183,0 Z M4.1410183,1 C2.4062818,1 1,2.4062818 1,4.1410183 C1,5.87575481 2.4062818,7.28203661 4.1410183,7.28203661 C5.87575481,7.28203661 7.28203661,5.87575481 7.28203661,4.1410183 C7.28203661,2.4062818 5.87575481,1 4.1410183,1 Z" id="Oval"></path>
                                        <path d="M5.6410183,3.6410183 C5.91716068,3.6410183 6.1410183,3.86487593 6.1410183,4.1410183 C6.1410183,4.38647819 5.96414314,4.59062668 5.73089394,4.63296264 L5.6410183,4.6410183 L2.6410183,4.6410183 C2.36487593,4.6410183 2.1410183,4.41716068 2.1410183,4.1410183 C2.1410183,3.89555842 2.31789347,3.69140993 2.55114267,3.64907397 L2.6410183,3.6410183 L5.6410183,3.6410183 Z" id="Line"></path>
                                        <path d="M4.1410183,2.25027181 C4.38647819,2.25027181 4.59062668,2.42714697 4.63296264,2.66039617 L4.6410183,2.75027181 L4.6410183,5.6410183 C4.6410183,5.91716068 4.41716068,6.1410183 4.1410183,6.1410183 C3.89555842,6.1410183 3.69140993,5.96414314 3.64907397,5.73089394 L3.6410183,5.6410183 L3.6410183,2.75027181 C3.6410183,2.47412943 3.86487593,2.25027181 4.1410183,2.25027181 Z" id="Line-Copy"></path>
                                    </g>
                                </g>
                                <polygon id="Path" fill="#FFBE55" opacity="0.600000024" points="4.38238349 0.169498959 5.54709853 2.74598982 8.26476697 2.99305058 6.11180886 4.99306632 6.78240237 7.55779238 4.38238349 6.06366298 1.9823646 7.55779238 2.65295811 4.99306632 0.5 2.99305058 3.21766844 2.74598982"></polygon>
                            </g>
                        </g>
                    </g>
                    <g id="Group-Copy" transform="translate(70.695556, 97.841111)">
                        <path d="M3.10233333,0.126111111 L42.377,0.126111111 C44.0668889,0.126111111 45.4288889,1.48811111 45.4288889,3.178 L45.4288889,37.9077778 C45.4288889,39.5976667 44.0668889,40.9596667 42.377,40.9596667 L3.10233333,40.9596667 C1.41244444,40.9596667 0.0504444444,39.5976667 0.0504444444,37.9077778 L0.0504444444,3.178 C0.0252222222,1.48811111 1.41244444,0.126111111 3.10233333,0.126111111 Z" id="Path" fill="#8AD2FF" fill-rule="nonzero"></path>
                        <path d="M3.10233333,0.126111111 L29.377,0.126111111 C29.377,0.126111111 29.377,40.9596667 29.377,40.9596667 L3.10233333,40.9596667 C1.41244444,40.9596667 0.0504444444,39.5976667 0.0504444444,37.9077778 L0.0504444444,3.178 C0.0252222222,1.48811111 1.41244444,0.126111111 3.10233333,0.126111111 Z" id="Path" fill="#5AB8FF" fill-rule="nonzero"></path>
                        <g id="Group" transform="translate(1.739333, 2.042889)">
                            <g id="Group-7" transform="translate(0.000000, 0.500000)">
                                <g id="Group-4" transform="translate(0.865444, 12.858623)" fill="#B6E7FF" fill-rule="nonzero">
                                    <path d="M38.4773349,2.16911111 L1.08455556,2.16911111 C0.479222222,2.16911111 0,1.66466667 0,1.08455556 C0,0.479222222 0.504444444,0 1.08455556,0 L38.4773349,0 C39.0826682,0 39.5618904,0.504444444 39.5618904,1.08455556 C39.5618904,1.68988889 39.0826682,2.16911111 38.4773349,2.16911111 Z" id="Path"></path>
                                    <path d="M38.4773349,8.38122222 L1.08455556,8.38122222 C0.479222222,8.38122222 -2.66453526e-13,7.87677778 -2.66453526e-13,7.29666667 C-2.66453526e-13,6.69133333 0.504444444,6.21211111 1.08455556,6.21211111 L38.4773349,6.21211111 C39.0826682,6.21211111 39.5618904,6.71655556 39.5618904,7.29666667 C39.5618904,7.87677778 39.0826682,8.38122222 38.4773349,8.38122222 Z" id="Path"></path>
                                </g>
                                <path d="M39.3641477,4.94820122 L30.5873319,4.94820122 C29.9819986,4.94820122 29.5027764,4.44375678 29.5027764,3.86364567 C29.5027764,3.25831234 30.0072208,2.77909011 30.5873319,2.77909011 L39.3641477,2.77909011 C39.9694811,2.77909011 40.4487033,3.28353456 40.4487033,3.86364567 C40.4487033,4.468979 39.9694811,4.94820122 39.3641477,4.94820122 Z" id="Path-Copy-3" fill="#B6E7FF" fill-rule="nonzero"></path>
                                <g id="Group-6" transform="translate(0.897700, 25.424482)" fill="#B6E7FF" fill-rule="nonzero">
                                    <path d="M8.40577778,6.16911111 L1.08455556,6.16911111 C0.479222222,6.16911111 0,5.66466667 0,5.08455556 C0,4.47922222 0.504444444,4 1.08455556,4 L8.40577778,4 C9.01111111,4 9.49033333,4.50444444 9.49033333,5.08455556 C9.49033333,5.68988889 9.01111111,6.16911111 8.40577778,6.16911111 Z" id="Path-Copy-4"></path>
                                    <g id="Group-5" transform="translate(31.268967, 0.584556)">
                                        <path d="M4.1410183,0 C6.42803956,0 8.28203661,1.85399705 8.28203661,4.1410183 C8.28203661,6.42803956 6.42803956,8.28203661 4.1410183,8.28203661 C1.85399705,8.28203661 9.09494702e-13,6.42803956 9.09494702e-13,4.1410183 C9.09494702e-13,1.85399705 1.85399705,0 4.1410183,0 Z M4.1410183,1 C2.4062818,1 1,2.4062818 1,4.1410183 C1,5.87575481 2.4062818,7.28203661 4.1410183,7.28203661 C5.87575481,7.28203661 7.28203661,5.87575481 7.28203661,4.1410183 C7.28203661,2.4062818 5.87575481,1 4.1410183,1 Z" id="Oval"></path>
                                        <path d="M5.6410183,3.6410183 C5.91716068,3.6410183 6.1410183,3.86487593 6.1410183,4.1410183 C6.1410183,4.38647819 5.96414314,4.59062668 5.73089394,4.63296264 L5.6410183,4.6410183 L2.6410183,4.6410183 C2.36487593,4.6410183 2.1410183,4.41716068 2.1410183,4.1410183 C2.1410183,3.89555842 2.31789347,3.69140993 2.55114267,3.64907397 L2.6410183,3.6410183 L5.6410183,3.6410183 Z" id="Line"></path>
                                        <path d="M4.1410183,2.25027181 C4.38647819,2.25027181 4.59062668,2.42714697 4.63296264,2.66039617 L4.6410183,2.75027181 L4.6410183,5.6410183 C4.6410183,5.91716068 4.41716068,6.1410183 4.1410183,6.1410183 C3.89555842,6.1410183 3.69140993,5.96414314 3.64907397,5.73089394 L3.6410183,5.6410183 L3.6410183,2.75027181 C3.6410183,2.47412943 3.86487593,2.25027181 4.1410183,2.25027181 Z" id="Line-Copy"></path>
                                    </g>
                                </g>
                                <polygon id="Path" fill="#FFBE55" opacity="0.600000024" points="4.38238349 0.169498959 5.54709853 2.74598982 8.26476697 2.99305058 6.11180886 4.99306632 6.78240237 7.55779238 4.38238349 6.06366298 1.9823646 7.55779238 2.65295811 4.99306632 0.5 2.99305058 3.21766844 2.74598982"></polygon>
                            </g>
                        </g>
                    </g>
                    <g id="Group-Copy-3" transform="translate(70.695556, 143.841111)">
                        <path d="M3.10233333,0.126111111 L42.377,0.126111111 C44.0668889,0.126111111 45.4288889,1.48811111 45.4288889,3.178 L45.4288889,37.9077778 C45.4288889,39.5976667 44.0668889,40.9596667 42.377,40.9596667 L3.10233333,40.9596667 C1.41244444,40.9596667 0.0504444444,39.5976667 0.0504444444,37.9077778 L0.0504444444,3.178 C0.0252222222,1.48811111 1.41244444,0.126111111 3.10233333,0.126111111 Z" id="Path" fill="#8AD2FF" fill-rule="nonzero"></path>
                        <path d="M3.10233333,0.126111111 L29.377,0.126111111 C29.377,0.126111111 29.377,40.9596667 29.377,40.9596667 L3.10233333,40.9596667 C1.41244444,40.9596667 0.0504444444,39.5976667 0.0504444444,37.9077778 L0.0504444444,3.178 C0.0252222222,1.48811111 1.41244444,0.126111111 3.10233333,0.126111111 Z" id="Path" fill="#5AB8FF" fill-rule="nonzero"></path>
                        <g id="Group" transform="translate(1.739333, 2.042889)">
                            <g id="Group-7" transform="translate(0.000000, 0.500000)">
                                <g id="Group-4" transform="translate(0.865444, 12.858623)" fill="#B6E7FF" fill-rule="nonzero">
                                    <path d="M38.4773349,2.16911111 L1.08455556,2.16911111 C0.479222222,2.16911111 0,1.66466667 0,1.08455556 C0,0.479222222 0.504444444,0 1.08455556,0 L38.4773349,0 C39.0826682,0 39.5618904,0.504444444 39.5618904,1.08455556 C39.5618904,1.68988889 39.0826682,2.16911111 38.4773349,2.16911111 Z" id="Path"></path>
                                    <path d="M38.4773349,8.38122222 L1.08455556,8.38122222 C0.479222222,8.38122222 -2.66453526e-13,7.87677778 -2.66453526e-13,7.29666667 C-2.66453526e-13,6.69133333 0.504444444,6.21211111 1.08455556,6.21211111 L38.4773349,6.21211111 C39.0826682,6.21211111 39.5618904,6.71655556 39.5618904,7.29666667 C39.5618904,7.87677778 39.0826682,8.38122222 38.4773349,8.38122222 Z" id="Path"></path>
                                </g>
                                <path d="M39.3641477,4.94820122 L30.5873319,4.94820122 C29.9819986,4.94820122 29.5027764,4.44375678 29.5027764,3.86364567 C29.5027764,3.25831234 30.0072208,2.77909011 30.5873319,2.77909011 L39.3641477,2.77909011 C39.9694811,2.77909011 40.4487033,3.28353456 40.4487033,3.86364567 C40.4487033,4.468979 39.9694811,4.94820122 39.3641477,4.94820122 Z" id="Path-Copy-3" fill="#B6E7FF" fill-rule="nonzero"></path>
                                <g id="Group-6" transform="translate(0.897700, 25.424482)" fill="#B6E7FF" fill-rule="nonzero">
                                    <path d="M8.40577778,6.16911111 L1.08455556,6.16911111 C0.479222222,6.16911111 0,5.66466667 0,5.08455556 C0,4.47922222 0.504444444,4 1.08455556,4 L8.40577778,4 C9.01111111,4 9.49033333,4.50444444 9.49033333,5.08455556 C9.49033333,5.68988889 9.01111111,6.16911111 8.40577778,6.16911111 Z" id="Path-Copy-4"></path>
                                    <g id="Group-5" transform="translate(31.268967, 0.584556)">
                                        <path d="M4.1410183,0 C6.42803956,0 8.28203661,1.85399705 8.28203661,4.1410183 C8.28203661,6.42803956 6.42803956,8.28203661 4.1410183,8.28203661 C1.85399705,8.28203661 9.09494702e-13,6.42803956 9.09494702e-13,4.1410183 C9.09494702e-13,1.85399705 1.85399705,0 4.1410183,0 Z M4.1410183,1 C2.4062818,1 1,2.4062818 1,4.1410183 C1,5.87575481 2.4062818,7.28203661 4.1410183,7.28203661 C5.87575481,7.28203661 7.28203661,5.87575481 7.28203661,4.1410183 C7.28203661,2.4062818 5.87575481,1 4.1410183,1 Z" id="Oval"></path>
                                        <path d="M5.6410183,3.6410183 C5.91716068,3.6410183 6.1410183,3.86487593 6.1410183,4.1410183 C6.1410183,4.38647819 5.96414314,4.59062668 5.73089394,4.63296264 L5.6410183,4.6410183 L2.6410183,4.6410183 C2.36487593,4.6410183 2.1410183,4.41716068 2.1410183,4.1410183 C2.1410183,3.89555842 2.31789347,3.69140993 2.55114267,3.64907397 L2.6410183,3.6410183 L5.6410183,3.6410183 Z" id="Line"></path>
                                        <path d="M4.1410183,2.25027181 C4.38647819,2.25027181 4.59062668,2.42714697 4.63296264,2.66039617 L4.6410183,2.75027181 L4.6410183,5.6410183 C4.6410183,5.91716068 4.41716068,6.1410183 4.1410183,6.1410183 C3.89555842,6.1410183 3.69140993,5.96414314 3.64907397,5.73089394 L3.6410183,5.6410183 L3.6410183,2.75027181 C3.6410183,2.47412943 3.86487593,2.25027181 4.1410183,2.25027181 Z" id="Line-Copy"></path>
                                    </g>
                                </g>
                                <polygon id="Path" fill="#FFBE55" opacity="0.600000024" points="4.38238349 0.169498959 5.54709853 2.74598982 8.26476697 2.99305058 6.11180886 4.99306632 6.78240237 7.55779238 4.38238349 6.06366298 1.9823646 7.55779238 2.65295811 4.99306632 0.5 2.99305058 3.21766844 2.74598982"></polygon>
                            </g>
                        </g>
                    </g>
                    <path d="M22.1115556,90.5151111 L22.5915556,89.7351111 L20.8755556,89.7351111 L20.8755556,80.3271111 L22.5915556,80.3271111 L22.5915556,90.5151111 L25.2075556,90.5151111 L25.2075556,79.5351111 L18.2475556,79.5351111 L18.2475556,90.5151111 L22.1115556,90.5151111 Z M28.8795556,90.5151111 L28.8795556,86.9271111 L31.3275556,90.5151111 L33.7035556,90.5151111 L30.1155556,85.0911111 L33.5475556,79.7391111 L31.2915556,79.7391111 L28.8795556,83.2671111 L28.8795556,79.5471111 L26.3115556,79.5471111 L26.3115556,90.5151111 L28.8795556,90.5151111 Z M37.0755556,90.5151111 L37.0755556,85.3911111 L38.5515556,85.3911111 L39.0315556,84.5871111 L37.0755556,84.5871111 L37.0755556,80.3271111 L39.0315556,80.3271111 L39.0315556,90.5151111 L41.5515556,90.5151111 L41.5515556,85.9911111 L40.9155556,85.0311111 L41.5395556,84.0711111 L41.5395556,79.5351111 L34.5675556,79.5351111 L34.5675556,90.5151111 L37.0755556,90.5151111 Z" id="OKR" fill="#FFBE55" fill-rule="nonzero"></path>
                </g>
                <g id="Group" transform="translate(151.837778, 41.868889)" fill-rule="nonzero">
                    <path d="M3.70766667,11.2491111 L3.70766667,8.42422222 C3.70766667,8.42422222 4.74177778,5.59933333 5.75066667,3.55633333 C4.994,3.80855556 3.70766667,5.59933333 3.70766667,5.59933333 C3.70766667,5.59933333 3.20322222,1.23588889 3.70766667,0.227 C0.378333333,3.05188889 0.378333333,4.06077778 0.378333333,4.06077778 L1.66466667,8.67644444 L1.41244444,12.258 L3.70766667,11.2491111 Z" id="Path" fill="#FFE3CA"></path>
                    <path d="M51.8316667,77.0286667 L53.3702222,79.8535556 C53.3702222,79.8535556 56.4473333,81.8965556 56.4473333,82.9306667 C56.4473333,83.9647778 56.4473333,85.2258889 56.4473333,85.2258889 L54.1521111,88.0507778 C54.1521111,88.0507778 52.1091111,82.4262222 51.8568889,82.6784444 C51.6046667,83.9647778 51.6046667,85.5033333 51.1002222,85.7555556 C50.848,84.217 51.6046667,80.3832222 50.5957778,79.0968889 C49.5112222,77.7853333 51.8316667,77.0286667 51.8316667,77.0286667 Z" id="Path" fill="#FFE3CA"></path>
                    <polygon id="Rectangle" fill="#FFE3CA" transform="translate(45.255144, 166.924460) rotate(175.511677) translate(-45.255144, -166.924460) " points="42.947388 161.930626 47.5629005 161.930626 47.5629005 171.918293 42.947388 171.918293"></polygon>
                    <path d="M47.9474444,171.738111 C49.8895556,173.629778 51.302,175.067444 51.3776667,176.101556 C49.6877778,177.514 44.1641111,178.976889 41.4905556,177.640111 C40.9608889,174.083778 43.357,172.091222 43.357,172.091222 L47.9474444,171.738111 Z" id="Path" fill="#0D4972"></path>
                    <polygon id="Rectangle" fill="#FFE3CA" transform="translate(17.857081, 166.888988) rotate(-180.000000) translate(-17.857081, -166.888988) " points="15.5492478 161.894988 20.1649145 161.894988 20.1649145 171.882988 15.5492478 171.882988"></polygon>
                    <path d="M23.2801111,66.1326667 C20.203,75.6162222 3.65722222,138.217778 13.62,166.113556 C17.8321111,169.064556 22.4477778,166.239667 22.4477778,166.239667 C22.4477778,166.239667 37.6063333,101.191556 34.7814444,84.5701111 C31.9565556,67.9486667 31.5782222,66.1326667 31.5782222,66.1326667 L23.2801111,66.1326667 L23.2801111,66.1326667 Z" id="Path" fill="#FFBE55"></path>
                    <polygon id="Rectangle" fill="#FFE3CA" transform="translate(30.391693, 32.235185) rotate(-180.000000) translate(-30.391693, -32.235185) " points="28.5378599 28.2626854 32.2455266 28.2626854 32.2455266 36.2076854 28.5378599 36.2076854"></polygon>
                    <path d="M24.0872222,26.3067778 C24.0872222,30.0648889 25.5248889,33.142 28.5767778,33.142 C31.6286667,33.142 35.0841111,30.0901111 35.0841111,26.3067778 C35.0841111,22.5234444 32.6123333,19.4715556 29.5856667,19.4715556 C26.559,19.4715556 24.0872222,22.5486667 24.0872222,26.3067778 Z" id="Path" fill="#FFE3CA"></path>
                    <path d="M22.7,20.9344444 C22.2964444,23.6584444 23.0531111,24.4655556 23.9863333,24.5412222 C25.2978889,24.6168889 26.4328889,25.4744444 26.8364444,26.7355556 C27.6435556,29.283 28.9298889,31.7547778 31.099,33.0411111 C33.9491111,34.4787778 42.2976667,26.9373333 38.2368889,20.203 C34.1761111,13.4938889 23.1035556,19.0932222 22.7,20.9344444 Z" id="Path" fill="#0E538C"></path>
                    <path d="M32.234,36.1938889 C36.8496667,36.6983333 43.5083333,40.0276667 43.5083333,40.0276667 C43.5083333,40.0276667 51.1758889,69.2097778 52.7144444,78.1636667 C50.4192222,79.7022222 49.6373333,80.4588889 49.6373333,80.4588889 L40.9356667,51.7812222 L37.6063333,66.1074444 L23.2801111,66.1074444 L19.9507778,47.67 C19.9507778,47.67 -1.53855556,37.1775556 0.252222222,11.3247778 C4.33822222,9.534 4.33822222,9.534 4.33822222,9.534 C4.33822222,9.534 3.30411111,36.9253333 23.2801111,36.4208889 C23.2801111,36.4461111 29.6865556,35.1597778 32.234,36.1938889 Z" id="Path" fill="#007AFF"></path>
                    <path d="M37.5811111,66.1326667 C46.535,81.7452222 53.0171111,145.380889 48.9058889,167.147667 C44.6937778,170.603111 41.2383333,167.147667 41.2383333,167.147667 C41.2383333,167.147667 30.6702222,109.666222 30.9224444,85.6042222 C29.8883333,71.278 30.9224444,66.1578889 30.9224444,66.1578889 L37.5811111,66.1578889 L37.5811111,66.1326667 Z" id="Path" fill="#FFBE55"></path>
                    <path d="M20.1525556,171.889444 C21.9433333,173.932444 23.2296667,175.471 23.2296667,176.505111 C21.4388889,177.791444 15.8143333,178.800333 13.2416667,177.261778 C12.9894444,173.680222 15.5368889,171.889444 15.5368889,171.889444 L20.1525556,171.889444 Z" id="Path" fill="#0D4972"></path>
                    <path d="M32.1078889,19.068 C33.0158889,16.4953333 35.8155556,14.8558889 38.5395556,14.8808242 C41.2635556,14.9063333 43.8614444,16.4196667 45.5765556,18.5131111 C47.3168889,20.6317778 48.2753333,23.2801111 48.7545556,25.9536667 C49.1328889,28.0723333 49.2337778,30.3927778 48.1744444,32.2844444 C47.2412222,33.9743333 45.5513333,35.1093333 44.5676667,36.7487778 C43.3822222,38.7665556 43.4074444,41.2887778 43.9118889,43.5587778 C44.4163333,45.8287778 45.4252222,47.9726667 46.0557778,50.2174444 C47.1151111,54.0007778 47.1151111,58.2633333 45.0721111,61.5926667 C43.0291111,64.922 38.5395556,66.9145556 34.958,65.3003333 C32.2844444,64.0896667 30.645,61.1891111 30.3927778,58.2885556 C30.1153333,55.3627778 31.0485556,52.4622222 32.3601111,49.8643333 C33.6716667,47.2412222 35.3867778,44.8703333 36.8748889,42.3228889 C38.136,40.1285556 39.271,37.7324444 39.1701111,35.185 C39.0187778,31.9313333 36.9253333,29.1821111 35.185,26.4328889 C33.4446667,23.6836667 31.9565556,20.3038889 33.1672222,17.2772222" id="Path" fill="#0E538C"></path>
                </g>
                <g id="Group" transform="translate(206.822222, 155.116667)" fill-rule="nonzero">
                    <path d="M25.1717778,64.6697778 C20.0768889,64.6697778 17.933,60.609 17.1006667,56.296 C16.1422222,51.4281111 16.8484444,46.2575556 16.8484444,46.2575556 L33.4951111,46.2575556 C33.4951111,46.2575556 33.5203333,46.4593333 33.5455556,46.8124444 C33.8734444,49.8895556 34.8823333,64.6697778 25.1717778,64.6697778 Z" id="Path" fill="#B6E7FF"></path>
                    <path d="M33.4951111,46.2827778 C33.4951111,46.6358889 29.7622222,46.9385556 25.1717778,46.9385556 C20.5813333,46.9385556 16.8484444,46.6358889 16.8484444,46.2827778 C16.8484444,45.9296667 20.5813333,45.627 25.1717778,45.627 C29.7622222,45.627 33.4951111,45.9044444 33.4951111,46.2827778 Z" id="Path" fill="#85DDFF"></path>
                    <path d="M47.7204444,0.100888889 C47.7204444,0.100888889 38.9431111,13.4686667 33.6716667,21.6154444 C28.4002222,29.7622222 27.013,31.4773333 26.3824444,34.1004444 C25.7518889,36.7235556 25.197,46.4593333 25.197,46.4593333 L24.8186667,46.4593333 C24.8186667,46.4593333 24.9447778,38.2116667 25.424,35.4372222 C25.878,32.7636667 25.3987778,31.78 25.0204444,28.9551111 C24.6421111,26.1302222 24.1376667,21.6154444 26.9877778,18.4878889 C29.8378889,15.3603333 29.0812222,12.2832222 30.0901111,10.215 C31.099,8.14677778 38.8674444,5.62455556 39.8763333,3.50588889 C40.8852222,1.362 45.2738889,0.0504444444 47.7204444,0.100888889 Z" id="Path" fill="#2A94F4"></path>
                    <path d="M47.7204444,0.100888889 C47.7204444,0.100888889 44.9712222,3.22844444 43.0795556,4.313 C41.1878889,5.37233333 40.3303333,4.43911111 38.8674444,7.01177778 C37.4297778,9.58444444 37.3793333,10.7194444 36.0425556,12.031 C34.731,13.3425556 33.142,13.4182222 33.0158889,16.2935556 C32.8897778,19.1688889 33.6464444,21.6154444 33.6464444,21.6154444 C33.6464444,21.6154444 47.1655556,0.781888889 47.7204444,0.100888889 Z" id="Path" fill="#41AAF7"></path>
                    <path d="M25.9032222,46.4593333 L26.3067778,46.4593333 C26.3067778,46.4593333 26.4328889,43.7857778 27.4922222,42.4994444 C28.1732222,41.6671111 31.0737778,40.7086667 33.9491111,39.5736667 C35.5381111,38.9431111 37.1018889,38.2621111 38.2873333,37.5054444 C41.6166667,35.3867778 44.8198889,28.5515556 45.0973333,27.3156667 C45.1982222,26.8868889 45.2486667,26.6346667 45.2234444,26.4581111 L45.2234444,26.4581111 C45.2234444,26.1302222 45.0468889,26.0797778 44.7694444,25.7518889 C44.6433333,25.6005556 44.2145556,25.651 43.7353333,25.8023333 C42.2976667,26.2311111 41.087,27.24 40.3303333,28.5263333 C39.6241111,29.737 38.5143333,31.2503333 37.1523333,31.6034444 C34.7814444,32.234 34.9832222,32.6123333 34.1256667,35.0336667 C33.2681111,37.4297778 31.0737778,37.8333333 28.3245556,40.6582222 C25.5501111,43.4831111 25.9032222,46.4593333 25.9032222,46.4593333 Z" id="Path" fill="#2A94F4"></path>
                    <path d="M33.9238889,39.5736667 C35.5128889,38.9431111 37.0766667,38.2621111 38.2621111,37.5054444 C41.5914444,35.3867778 44.7946667,28.5515556 45.0721111,27.3156667 C45.173,26.8868889 45.2234444,26.6346667 45.1982222,26.4581111 C45.1982222,26.5337778 45.0216667,27.6183333 43.2813333,28.3497778 C41.4653333,29.1064444 41.1122222,29.1064444 40.8852222,30.2414444 C40.6582222,31.3764444 40.4564444,32.6123333 39.498,32.8393333 C38.5647778,33.0663333 37.9594444,32.007 37.228,33.7473333 C36.4713333,35.4876667 36.1182222,36.0677778 35.4372222,36.2947778 C34.7562222,36.5217778 34.2265556,36.1686667 34.0752222,37.5054444 C33.9995556,38.3125556 33.9491111,39.0944444 33.9238889,39.5736667 Z" id="Path" fill="#41AAF7"></path>
                    <path d="M23.0026667,46.4593333 L22.5486667,46.4593333 C22.5486667,46.4593333 21.6406667,29.9135556 20.3795556,28.375 C19.5724444,27.3913333 16.8988889,25.6005556 13.4938889,24.2637778 C11.6274444,23.5323333 9.761,22.7 8.34855556,21.8172222 C4.38866667,19.295 0.630555556,11.1986667 0.302666667,9.761 C0.176555556,9.25655556 0.126111111,8.95388889 0.151333333,8.75211111 L0.151333333,8.75211111 C0.151333333,8.37377778 0.353111111,8.29811111 0.681,7.91977778 C0.832333333,7.718 1.31155556,7.79366667 1.91688889,7.97022222 C3.632,8.49988889 5.06966667,9.66011111 5.95244444,11.1986667 C6.78477778,12.6363333 8.09633333,14.4018889 9.71055556,14.8558889 C12.5102222,15.6125556 12.2832222,16.0665556 13.2921111,18.9166667 C14.3262222,21.7667778 16.9241111,22.2207778 20.1777778,25.5753333 C23.4314444,28.9046667 23.0026667,46.4593333 23.0026667,46.4593333 Z" id="Path" fill="#2A94F4"></path>
                    <path d="M13.4938889,24.2637778 C11.6274444,23.5323333 9.761,22.7 8.34855556,21.8172222 C4.38866667,19.295 0.630555556,11.1986667 0.302666667,9.761 C0.176555556,9.25655556 0.126111111,8.95388889 0.151333333,8.75211111 C0.151333333,8.853 0.353111111,10.1393333 2.39611111,10.9716667 C4.54,11.8544444 4.94355556,11.8544444 5.24622222,13.2164444 C5.52366667,14.5532222 5.75066667,16.0161111 6.88566667,16.2935556 C7.99544444,16.571 8.70166667,15.3098889 9.58444444,17.3528889 C10.4672222,19.3958889 10.896,20.1021111 11.7031111,20.3795556 C12.5102222,20.657 13.1407778,20.2282222 13.3173333,21.8172222 C13.393,22.8008889 13.4434444,23.7088889 13.4938889,24.2637778 Z" id="Path" fill="#41AAF7"></path>
                    <path d="M25.1717778,64.6697778 C20.0768889,64.6697778 17.933,60.609 17.1006667,56.296 C22.0946667,54.4043333 28.3497778,51.3776667 33.5707778,46.8124444 C33.8734444,49.8895556 34.8823333,64.6697778 25.1717778,64.6697778 Z" id="Path" fill="#CCE9FF"></path>
                </g>
                <g id="Group" transform="translate(0.000000, 167.223333)" fill-rule="nonzero">
                    <path d="M18.6896667,51.1758889 C14.6541111,51.1758889 12.9642222,47.9474444 12.2832222,44.5424444 C11.5265556,40.6834444 12.0814444,36.5974444 12.0814444,36.5974444 L25.2726667,36.5974444 C25.2726667,36.5974444 25.2978889,36.7487778 25.3231111,37.0262222 C25.6005556,39.4727778 26.3824444,51.1758889 18.6896667,51.1758889 Z" id="Path" fill="#B6E7FF"></path>
                    <path d="M25.2978889,36.5974444 C25.2978889,36.8748889 22.3468889,37.1271111 18.6896667,37.1271111 C15.0324444,37.1271111 12.0814444,36.9001111 12.0814444,36.5974444 C12.0814444,36.32 15.0324444,36.0677778 18.6896667,36.0677778 C22.3468889,36.093 25.2978889,36.32 25.2978889,36.5974444 Z" id="Path" fill="#85DDFF"></path>
                    <path d="M37.7576667,0.0252222222 C37.7576667,0.0252222222 30.7963333,10.6185556 26.6094444,17.0754444 C22.4225556,23.5323333 21.338,24.8691111 20.8335556,26.9625556 C20.3291111,29.056 19.9003333,36.7487778 19.9003333,36.7487778 L19.5976667,36.7487778 C19.5976667,36.7487778 19.6985556,30.2162222 20.0768889,27.9966667 C20.43,25.878 20.0516667,25.0961111 19.749,22.8765556 C19.4463333,20.6317778 19.0427778,17.0502222 21.3127778,14.5784444 C23.5827778,12.0814444 22.9774444,9.66011111 23.7845556,8.02066667 C24.5916667,6.38122222 30.7458889,4.38866667 31.5277778,2.69877778 C32.3348889,1.00888889 35.8155556,-0.0252222222 37.7576667,0.0252222222 Z" id="Path" fill="#2A94F4"></path>
                    <path d="M37.7576667,0.0252222222 C37.7576667,0.0252222222 35.5633333,2.52222222 34.0752222,3.35455556 C32.5871111,4.21211111 31.8808889,3.45544444 30.7458889,5.49844444 C29.6108889,7.54144444 29.5604444,8.42422222 28.5011111,9.48355556 C27.4417778,10.5176667 26.2058889,10.5681111 26.105,12.8633333 C26.0041111,15.1585556 26.6094444,17.1006667 26.6094444,17.1006667 C26.6094444,17.1006667 37.3036667,0.554888889 37.7576667,0.0252222222 Z" id="Path" fill="#41AAF7"></path>
                    <path d="M18.16,36.7487778 L17.7816667,36.7487778 C17.7816667,36.7487778 17.0502222,23.6332222 16.0665556,22.4225556 C15.436,21.6406667 13.3173333,20.2282222 10.6185556,19.1688889 C9.13044444,18.5887778 7.66755556,17.933 6.53255556,17.2267778 C3.405,15.2342222 0.403555556,8.82777778 0.151333333,7.66755556 C0.0504444444,7.264 0.0252222222,7.037 0.0252222222,6.86044444 L0.0252222222,6.86044444 C0.0252222222,6.55777778 0.176555556,6.50733333 0.454,6.20466667 C0.580111111,6.05333333 0.958444444,6.10377778 1.43766667,6.25511111 C2.79966667,6.65866667 3.93466667,7.59188889 4.64088889,8.82777778 C5.29666667,9.96277778 6.33077778,11.3752222 7.61711111,11.7283333 C9.83666667,12.3084444 9.63488889,12.6867778 10.4672222,14.9315556 C11.2743333,17.1763333 13.3425556,17.5546667 15.9152222,20.203 C18.4878889,22.8261111 18.16,36.7487778 18.16,36.7487778 Z" id="Path" fill="#2A94F4"></path>
                    <path d="M10.6185556,19.1688889 C9.13044444,18.5887778 7.66755556,17.933 6.53255556,17.2267778 C3.405,15.2342222 0.403555556,8.82777778 0.151333333,7.66755556 C0.0504444444,7.264 0.0252222222,7.037 0.0252222222,6.86044444 C0.0252222222,6.93611111 0.176555556,7.945 1.816,8.626 C3.50588889,9.33222222 3.83377778,9.33222222 4.06077778,10.3915556 C4.28777778,11.4508889 4.46433333,12.6111111 5.34711111,12.8381111 C6.22988889,13.0651111 6.78477778,12.0562222 7.491,13.6956667 C8.19722222,15.3098889 8.52511111,15.8647778 9.18088889,16.0917778 C9.83666667,16.3187778 10.3158889,15.9908889 10.4672222,17.2267778 C10.5428889,17.9834444 10.5933333,18.7148889 10.6185556,19.1688889 Z" id="Path" fill="#41AAF7"></path>
                    <path d="M18.6896667,51.1758889 C14.6541111,51.1758889 12.9642222,47.9474444 12.2832222,44.5424444 C16.2431111,43.0543333 21.2118889,40.633 25.3231111,37.0262222 C25.6005556,39.4727778 26.3824444,51.1758889 18.6896667,51.1758889 Z" id="Path" fill="#CCE9FF"></path>
                </g>
            </g>
        </g>
    </g>
</svg>