<?xml version="1.0" encoding="UTF-8"?>
<svg width="293px" height="244px" viewBox="0 0 293 244" version="1.1" xmlns="http://www.w3.org/2000/svg" xmlns:xlink="http://www.w3.org/1999/xlink">
    <title>finished@2x</title>
    <defs>
        <linearGradient x1="50.0277998%" y1="99.9884561%" x2="50.0277998%" y2="0.0306429498%" id="linearGradient-1">
            <stop stop-color="#D7AEB2" offset="51.2%"></stop>
            <stop stop-color="#B7898F" offset="100%"></stop>
        </linearGradient>
    </defs>
    <g id="页面-1" stroke="none" stroke-width="1" fill="none" fill-rule="evenodd">
        <g id="start" transform="translate(-43.000000, -227.000000)" fill-rule="nonzero">
            <g id="finished" transform="translate(43.000000, 227.500000)">
                <path d="M289.452286,242.940159 L3.3526839,242.940159 C1.49761431,242.940159 0.00159045726,241.444135 0.00159045726,239.589066 L0.00159045726,222.833598 C0.00159045726,220.978529 1.49761431,219.482505 3.3526839,219.482505 L289.452286,219.482505 C291.307356,219.482505 292.80338,220.978529 292.80338,222.833598 L292.80338,239.589066 C292.80338,241.384294 291.307356,242.940159 289.452286,242.940159 Z" id="Path" fill="#F1F1F1"></path>
                <g id="Group" transform="translate(95.617647, 146.382353)">
                    <path d="M13.225107,19.2831818 L9.11245989,16.9448663 L0.304171123,25.7531551 C0.304171123,25.7531551 6.90721925,27.8506684 13.225107,19.2831818 Z" id="Path" fill="#1E0F00"></path>
                    <path d="M35.1000802,5.36735294 C35.1000802,5.36735294 32.2801604,24.9737166 30.3474064,30.0495722 C30.3474064,30.0495722 20.9117647,23.1677005 13.2631283,19.3465508 L7.22406417,24.5174599 C7.22406417,24.5174599 26.006631,42.4445455 34.0291444,41.8235294 C45.0426738,40.9680481 55.257754,6.79315508 55.257754,6.79315508 L35.1000802,5.36735294 Z" id="Path" fill="#0E538A"></path>
                    <path d="M65.3397594,63.552754 L68.3117647,68.1470053 L83.8435027,63.8062299 C83.8371658,63.8062299 77.9691979,58.128369 65.3397594,63.552754 Z" id="Path" fill="#1E0F00"></path>
                    <path d="M59.4210963,31.9252941 L51.5506684,13.4152139 L51.5506684,13.4152139 C51.2464973,12.097139 52.1780214,10.912139 52.1780214,10.912139 L51.7344385,6.29254011 L41.1898396,2.54109626 L34.5170856,0.215454545 C34.5170856,0.215454545 20.9307754,9.77783422 65.1813369,63.6351337 L74.1987433,61.1637433 L59.4210963,31.9252941 Z" id="Path" fill="#007AFF"></path>
                </g>
                <g id="Group" transform="translate(5.000000, 0.000000)">
                    <path d="M211.27856,138.873128 L211.27856,25.2715508 C211.27856,21.6468449 209.345775,18.3009626 206.209011,16.4886096 L180.468529,1.62858289 C177.331765,-0.183770053 173.466257,-0.183770053 170.329492,1.62858289 L62.2220053,64.0470321 C60.682139,64.9341979 59.4020856,66.2142513 58.5085829,67.7604545 L32.7681016,112.346872 C31.8809358,113.886738 31.4120053,115.635722 31.4120053,117.41639 L31.4120053,231.017968 C31.4120053,232.513476 32.4005615,234.015321 34.3840107,235.155963 C38.3445722,237.443583 44.7638503,237.443583 48.7244118,235.155963 C50.7015241,234.015321 51.6964171,232.513476 51.6964171,231.017968 L51.6964171,231.017968 L51.6964171,120.128583 L74.718369,80.2504813 L175.399011,22.1157754 L191.000455,31.120508 L191.000455,138.873128 L191.000455,138.873128 C191.000455,140.374973 191.989011,141.876818 193.97246,143.01746 C197.933021,145.30508 204.352299,145.30508 208.312861,143.01746 C210.29631,141.870481 211.284866,140.374973 211.27856,138.873128 L211.27856,138.873128 Z" id="Arch" fill="#007AFF"></path>
                    <path d="M51.6900802,120.128583 C51.6900802,120.128583 48.458262,115.692754 38.7881551,114.773904 C38.7881551,114.773904 45.6700267,112.847487 53.2362834,117.448075 L51.6900802,120.128583 Z" id="Path" fill="#0A4971"></path>
                    <path d="M74.7120321,80.2504813 C74.7120321,80.2504813 75.5231551,74.9274866 69.7058824,70.4092781 C69.7058824,70.4092781 75.0478877,72.0188503 76.8602406,79.0084492 L74.7120321,80.2504813 Z" id="Path" fill="#0A4971"></path>
                    <path d="M175.399011,22.1157754 C177.306417,20.1766845 178.865294,15.2022193 178.46607,10.7473797 C178.46607,10.7473797 180.715668,15.4366845 177.420481,23.2817647 L175.399011,22.1157754 Z" id="Path" fill="#0A4971"></path>
                    <path d="M191.000455,31.120508 C196.196711,31.3296257 201.316925,29.3841979 203.724947,25.8925668 C203.724947,25.8925668 201.684465,32.9201872 191.000455,33.6235829 L191.000455,31.120508 Z" id="Path" fill="#0A4971"></path>
                    <path d="M152.586176,35.2838503 L152.586176,18.275615 C152.586176,17.401123 151.971497,17.0462567 151.21107,17.4835027 L87.0309626,54.5416845 C86.2705348,54.9789305 85.6621925,56.0435294 85.6558556,56.9180214 L85.6558556,73.9325936 L152.586176,35.2838503 Z" id="Shadow_8_" fill="#0A4971"></path>
                    <path d="M153.859893,14.4164439 C153.612754,14.2706952 153.264225,14.2897059 152.884011,14.5051604 L88.7039037,51.5633422 C87.9434759,52.0005882 87.3287968,53.0651872 87.3287968,53.9396791 L87.3287968,77.5192781 C87.3287968,77.9565241 87.4808824,78.2670321 87.7280214,78.4064439 C87.9751604,78.5521925 90.0536631,79.7498663 90.3008021,79.8892781 C90.5479412,80.0350267 90.8901337,80.0096791 91.2703476,79.7942246 L155.450455,42.7360428 C156.210882,42.2987968 156.819225,41.2341979 156.819225,40.3597059 L156.819225,16.7864439 C156.819225,16.342861 156.660802,16.0323529 156.407326,15.8929412 C156.172861,15.7535294 154.107032,14.5621925 153.859893,14.4164439 Z" id="Path" fill="#27DEBF"></path>
                    <path d="M91.2766845,53.0525134 L155.456791,15.9943316 C156.217219,15.5570856 156.831898,15.9119519 156.831898,16.7864439 L156.831898,40.3660428 C156.831898,41.2405348 156.217219,42.3051337 155.456791,42.7423797 L91.2766845,79.8005615 C90.5162567,80.2378075 89.9015775,79.8829412 89.9015775,79.0084492 L89.9015775,55.4288503 C89.9015775,54.5543583 90.5162567,53.4897594 91.2766845,53.0525134 Z" id="Path" fill="#FEBE55"></path>
                    <path d="M89.9015775,79.0084492 C89.9015775,79.395 90.0219786,79.6801604 90.2247594,79.8449198 C89.7685027,79.585107 87.9624866,78.5395187 87.7280214,78.4064439 C87.4808824,78.2670321 87.3287968,77.9565241 87.3287968,77.5192781 L87.3287968,53.9396791 C87.3287968,53.5024332 87.4808824,53.0208289 87.7343583,52.5899198 L90.307139,54.072754 C90.0536631,54.5036631 89.9015775,54.9916043 89.9015775,55.4288503 L89.9015775,79.0084492 Z" id="Path" fill="#FCAF3F"></path>
                    <path d="M153.859893,14.4164439 C154.094358,14.5558556 155.919385,15.6077807 156.350294,15.8549198 C156.109492,15.7598663 155.798984,15.7978877 155.456791,15.9943316 L91.2766845,53.0525134 C90.8964706,53.2679679 90.560615,53.6418449 90.307139,54.072754 L87.7343583,52.5899198 C87.9814973,52.1590107 88.3236898,51.7851337 88.7039037,51.5633422 L152.884011,14.5051604 C153.264225,14.2897059 153.612754,14.2706952 153.859893,14.4164439 Z" id="Path" fill="#FFC97B"></path>
                    <g transform="translate(100.756684, 27.882353)" fill="#FAFAFA" id="Path">
                        <path d="M7.01494652,21.7799198 C7.1163369,21.7228877 7.19871658,21.7292246 7.27475936,21.7989305 C7.34446524,21.8686364 7.38248663,21.9827005 7.38248663,22.1347861 L7.38248663,24.3590374 C7.38248663,24.511123 7.34446524,24.6695455 7.27475936,24.821631 C7.20505348,24.9737166 7.1163369,25.0814439 7.01494652,25.1384759 L2.94665775,27.4894652 L2.94665775,30.3600802 L6.74245989,28.1675134 C6.84385027,28.1104813 6.92622995,28.1168182 7.00227273,28.1865241 C7.07197861,28.2562299 7.11,28.3702941 7.11,28.5223797 L7.11,30.746631 C7.11,30.8987166 7.07197861,31.057139 7.00227273,31.2092246 C6.92622995,31.3613102 6.84385027,31.4690374 6.74245989,31.5260695 L2.94665775,33.7186364 L2.94665775,38.2431818 C2.94665775,38.3952674 2.90863636,38.5536898 2.83893048,38.7057754 C2.7628877,38.857861 2.68050802,38.9655882 2.57911765,39.0226203 L0.798449198,40.0555348 C0.697058824,40.1125668 0.614679144,40.1062299 0.538636364,40.0365241 C0.462593583,39.9668182 0.430909091,39.852754 0.430909091,39.7006684 L0.430909091,26.1587166 C0.430909091,26.006631 0.468930481,25.8545455 0.538636364,25.696123 C0.608342246,25.5440374 0.697058824,25.4363102 0.798449198,25.3792781 L7.01494652,21.7799198 Z"></path>
                        <path d="M9.19483957,35.1951337 C9.0934492,35.2521658 9.01106952,35.2458289 8.93502674,35.176123 C8.85898396,35.1064171 8.82729947,34.9923529 8.82729947,34.8402674 L8.82729947,21.2983155 C8.82729947,21.1462299 8.86532086,20.9941444 8.93502674,20.8357219 C9.00473262,20.6836364 9.0934492,20.5759091 9.19483957,20.518877 L10.975508,19.4859626 C11.0768984,19.4289305 11.1592781,19.4352674 11.2353209,19.5049733 C11.3050267,19.5746791 11.3430481,19.6887433 11.3430481,19.8408289 L11.3430481,33.3827807 C11.3430481,33.5348663 11.3050267,33.6932888 11.2353209,33.8453743 C11.1592781,33.9974599 11.0768984,34.1051872 10.975508,34.1622193 L9.19483957,35.1951337 Z"></path>
                        <path d="M19.4479412,29.2764706 C19.2895187,29.3651872 19.1691176,29.3715241 19.0740642,29.3018182 C18.9790107,29.2321123 18.9156417,29.1687433 18.8902941,29.1117112 L15.7725401,23.7443583 L15.7725401,30.8290107 C15.7725401,30.9810963 15.7345187,31.1395187 15.6648128,31.2916043 C15.5887701,31.4436898 15.5063904,31.5514171 15.405,31.6084492 L13.6243316,32.6413636 C13.5229412,32.6983957 13.4405615,32.6920588 13.3645187,32.6223529 C13.2884759,32.5526471 13.2567914,32.4385829 13.2567914,32.2864973 L13.2567914,18.7445455 C13.2567914,18.5924599 13.2948128,18.4403743 13.3645187,18.2819519 C13.4342246,18.1298663 13.5229412,18.022139 13.6243316,17.965107 L15.0374599,17.1476471 C15.1895455,17.0589305 15.3162834,17.0462567 15.4113369,17.1222995 C15.5063904,17.1920053 15.5697594,17.2553743 15.595107,17.3124064 L18.712861,22.6797594 L18.712861,15.5887701 C18.712861,15.4366845 18.7508824,15.2845989 18.8205882,15.1261765 C18.8902941,14.9740909 18.9790107,14.8663636 19.0804011,14.8093316 L20.8610695,13.7764171 C20.9624599,13.719385 21.0448396,13.7257219 21.1208824,13.7954278 C21.1969251,13.8651337 21.2286096,13.9791979 21.2286096,14.1312834 L21.2286096,27.6732353 C21.2286096,27.8253209 21.1905882,27.9837433 21.1208824,28.1358289 C21.0511765,28.2879144 20.9624599,28.3956417 20.8610695,28.4526738 L19.4479412,29.2764706 Z"></path>
                        <path d="M23.5035561,26.9318182 C23.4021658,26.9888503 23.3197861,26.9825134 23.2437433,26.9128075 C23.1677005,26.8431016 23.136016,26.7290374 23.136016,26.5769519 L23.136016,13.035 C23.136016,12.8829144 23.1740374,12.7308289 23.2437433,12.5724064 C23.3134492,12.4203209 23.4021658,12.3125936 23.5035561,12.2555615 L25.2905615,11.2226471 C25.3919519,11.165615 25.4743316,11.1719519 25.5503743,11.2416578 C25.6200802,11.3113636 25.6581016,11.4254278 25.6581016,11.5775134 L25.6581016,25.1194652 C25.6581016,25.2715508 25.6200802,25.4299733 25.5503743,25.5820588 C25.4743316,25.7341444 25.3919519,25.8418717 25.2905615,25.8989037 L23.5035561,26.9318182 Z"></path>
                        <path d="M31.1014973,7.66131016 C31.684492,7.32545455 32.2167914,7.14802139 32.6983957,7.1226738 C33.1863369,7.1036631 33.6045722,7.19237968 33.9594385,7.38882353 C34.3143048,7.59160428 34.5931283,7.87676471 34.7895722,8.25064171 C34.9923529,8.62451872 35.0937433,9.03008021 35.1064171,9.4736631 C35.1064171,9.60040107 35.0747326,9.72713904 35.0177005,9.84754011 C34.9606684,9.97427807 34.8909626,10.0566578 34.8212567,10.101016 L33.0405882,11.1339305 C32.9138503,11.2099733 32.8124599,11.2416578 32.7364171,11.228984 C32.6603743,11.2163102 32.5779947,11.1782888 32.495615,11.1149198 C32.4702674,11.0895722 32.4259091,11.0452139 32.368877,10.9818449 C32.3118449,10.9184759 32.2231283,10.8677807 32.1154011,10.8234225 C32.0076738,10.7790642 31.868262,10.7727273 31.7098396,10.7854011 C31.5450802,10.8044118 31.3486364,10.8804545 31.1078342,11.0135294 C30.936738,11.1149198 30.7719786,11.228984 30.6135561,11.3557219 C30.4551337,11.4824599 30.3157219,11.6218717 30.188984,11.7676203 C30.0685829,11.913369 29.9671925,12.0844652 29.8911497,12.2682353 C29.815107,12.4520053 29.7770856,12.6484492 29.7770856,12.8575668 C29.7770856,13.0666845 29.8214439,13.2187701 29.9038235,13.3074866 C29.9925401,13.3962032 30.1382888,13.4405615 30.3410695,13.4468984 C30.5438503,13.4468984 30.8163369,13.408877 31.1521925,13.3264973 C31.4880481,13.2441176 31.9062834,13.1363904 32.4068984,13.0033155 C32.9075134,12.8702406 33.3384225,12.8132086 33.7122995,12.8385561 C34.0861765,12.8639037 34.3966845,12.9779679 34.6438235,13.1934225 C34.8909626,13.4025401 35.0810695,13.719385 35.2014706,14.1312834 C35.3218717,14.5431818 35.3852406,15.0754813 35.3852406,15.7345187 C35.3852406,16.4505882 35.2838503,17.1413102 35.0683957,17.8256952 C34.8592781,18.5037433 34.5677807,19.150107 34.1875668,19.771123 C33.8136898,20.3858021 33.3637701,20.9497861 32.8504813,21.456738 C32.3371925,21.9636898 31.7795455,22.388262 31.1712032,22.7431283 C30.5565241,23.0979947 29.9925401,23.3007754 29.4792513,23.3387968 C28.9722995,23.3831551 28.5350535,23.3007754 28.1675134,23.1043316 C27.7999733,22.9015508 27.5084759,22.6037166 27.3056952,22.2108289 C27.0965775,21.8116043 26.9888503,21.3553476 26.9761765,20.829385 C26.9761765,20.7026471 27.007861,20.5759091 27.064893,20.455508 C27.1219251,20.3287701 27.191631,20.2463904 27.2613369,20.208369 L29.0420053,19.1754545 C29.1687433,19.0994118 29.2701337,19.0677273 29.3398396,19.0740642 C29.4158824,19.0804011 29.4855882,19.1120856 29.5552941,19.1691176 C29.5933155,19.207139 29.6440107,19.2641711 29.7200535,19.3465508 C29.7897594,19.4289305 29.8911497,19.5049733 30.0115508,19.5683422 C30.1319519,19.6317112 30.2903743,19.6570588 30.4741444,19.644385 C30.6579144,19.6317112 30.8923797,19.5493316 31.1648663,19.3909091 C31.6464706,19.1120856 32.0456952,18.8015775 32.368877,18.4530481 C32.6920588,18.1045187 32.8504813,17.7243048 32.8504813,17.3060695 C32.8504813,17.0969519 32.7934492,16.9575401 32.6730481,16.8814973 C32.5526471,16.8117914 32.3752139,16.780107 32.1407487,16.7991176 C31.9062834,16.8181283 31.6021123,16.8751604 31.2345722,16.9765508 C30.8670321,17.0779412 30.436123,17.1856684 29.935508,17.3060695 C28.9976471,17.5405348 28.3195989,17.4201337 27.8886898,16.9512032 C27.4577807,16.4822727 27.2423262,15.6458021 27.2423262,14.4417914 C27.2423262,13.8397861 27.3310428,13.2187701 27.5084759,12.5724064 C27.6859091,11.9260428 27.939385,11.2923529 28.2752406,10.6840107 C28.6110963,10.0693316 29.0166578,9.50534759 29.4919251,8.98572193 C29.9735294,8.43441176 30.5058289,8.00350267 31.1014973,7.66131016 Z"></path>
                        <path d="M44.4279947,0.177433155 C44.529385,0.12040107 44.6117647,0.126737968 44.6878075,0.19644385 C44.7575134,0.266149733 44.7955348,0.380213904 44.7955348,0.532299465 L44.7955348,14.0742513 C44.7955348,14.2263369 44.7575134,14.3847594 44.6878075,14.5368449 C44.6181016,14.6889305 44.529385,14.7966578 44.4279947,14.8536898 L42.6473262,15.8866043 C42.5459358,15.9436364 42.4635561,15.9372995 42.3875134,15.8675936 C42.3178075,15.7978877 42.2797861,15.6838235 42.2797861,15.531738 L42.2797861,10.3988503 L39.2570856,12.1414973 L39.2570856,17.274385 C39.2570856,17.4264706 39.2190642,17.584893 39.1493583,17.7369786 C39.0733155,17.8890642 38.9909358,17.9967914 38.8895455,18.0538235 L37.108877,19.086738 C37.0074866,19.1437701 36.925107,19.1437701 36.8490642,19.0804011 C36.7730214,19.0170321 36.7413369,18.9029679 36.7413369,18.7318717 L36.7413369,5.18991979 C36.7413369,5.03783422 36.7793583,4.88574866 36.8490642,4.7273262 C36.9187701,4.57524064 37.0074866,4.46751337 37.108877,4.41048128 L38.8895455,3.37756684 C38.9909358,3.32053476 39.0733155,3.32687166 39.1493583,3.39657754 C39.2190642,3.46628342 39.2570856,3.58034759 39.2570856,3.73243316 L39.2570856,8.78294118 L42.2797861,7.04029412 L42.2797861,1.9897861 C42.2797861,1.83770053 42.3178075,1.68561497 42.3875134,1.52719251 C42.4635561,1.37510695 42.5459358,1.26737968 42.6473262,1.21034759 L44.4279947,0.177433155 Z"></path>
                    </g>
                    <g transform="translate(51.328877, 155.887701)" fill="#FFBD58" id="Path">
                        <path d="M86.5873797,2.56644385 L83.3492246,2.92131016 L85.6431818,0.456256684 C73.533369,5.04417112 55.1753743,1.55887701 33.8453743,5.48141711 C20.8420588,7.87042781 5.00614973,17.0082353 0.367540107,22.1474599 L0.367540107,29.5045989 C5.07585561,23.8077273 23.3324599,12.4520053 34.2509358,10.2594385 C56.8356417,5.72855615 74.7880749,9.81585561 85.0158289,6.24184492 L86.7901604,5.48141711 L83.6724064,5.11387701 L86.5873797,2.56644385 Z"></path>
                        <path d="M86.5873797,2.56644385 L83.3492246,2.92131016 L85.6431818,0.456256684 C73.533369,5.04417112 55.1753743,1.55887701 33.8453743,5.48141711 C20.8420588,7.87042781 5.00614973,17.0082353 0.367540107,22.1474599 L0.367540107,29.5045989 C5.07585561,23.8077273 23.3324599,12.4520053 34.2509358,10.2594385 C56.8356417,5.72855615 74.7880749,9.81585561 85.0158289,6.24184492 L86.7901604,5.48141711 L83.6724064,5.11387701 L86.5873797,2.56644385 Z" opacity="0.2"></path>
                    </g>
                    <g transform="translate(143.213904, 90.617647)" fill="#FFBD58" id="Path">
                        <path d="M27.7619519,42.6029679 C22.0650802,53.0208289 14.7332888,61.0877005 0.0570320856,63.8759358 L3.64371658,64.5603209 L0.665374332,66.5437701 L3.71975936,66.9620053 L1.62858289,69.0214973 C17.711631,65.4918449 25.4109626,56.569492 31.3042781,46.2593583 C35.4802941,38.9529144 38.1861497,27.4387701 42.8944652,18.9093048 C46.6142246,12.1731818 49.8397059,8.57382353 52.9131016,6.46363636 L52.9131016,0.47526738 C48.1097326,3.25082888 43.4774599,8.42807487 39.8210695,15.1325134 C34.4473797,24.9800535 30.7022727,37.2229412 27.7619519,42.6029679 Z"></path>
                        <path d="M27.7619519,42.6029679 C22.0650802,53.0208289 14.7332888,61.0877005 0.0570320856,63.8759358 L3.64371658,64.5603209 L0.665374332,66.5437701 L3.71975936,66.9620053 L1.62858289,69.0214973 C17.711631,65.4918449 25.4109626,56.569492 31.3042781,46.2593583 C35.4802941,38.9529144 38.1861497,27.4387701 42.8944652,18.9093048 C46.6142246,12.1731818 49.8397059,8.57382353 52.9131016,6.46363636 L52.9131016,0.47526738 C48.1097326,3.25082888 43.4774599,8.42807487 39.8210695,15.1325134 C34.4473797,24.9800535 30.7022727,37.2229412 27.7619519,42.6029679 Z" opacity="0.2"></path>
                    </g>
                    <g transform="translate(0.000000, 3.802139)" fill="#FEBE55">
                        <path d="M229.085214,63.616123 C229.085214,63.616123 226.455401,62.0318984 226.335,59.186631 L228.280428,57.6214171 C228.280428,57.6214171 228.014278,59.3704011 230.276551,61.8734759 L229.085214,63.616123 Z" id="XMLID_831_"></path>
                        <path d="M252.937299,41.3102406 C252.937299,41.3102406 250.459572,39.4978877 250.58631,36.6589572 L252.658476,35.2711765 C252.658476,35.2711765 252.240241,36.9884759 254.274385,39.6816578 L252.937299,41.3102406 Z" id="XMLID_829_"></path>
                        <path d="M268.025455,139.734947 C268.025455,139.734947 265.547727,137.922594 265.674465,135.083663 L267.746631,133.695882 C267.746631,133.695882 267.328396,135.413182 269.36254,138.106364 L268.025455,139.734947 Z" id="XMLID_743_"></path>
                        <path d="M252.265588,7.87042781 C252.265588,7.87042781 251.264358,4.96812834 252.987995,2.70585561 L255.478396,2.7502139 C255.478396,2.7502139 254.153984,3.92254011 254.287059,7.29377005 L252.265588,7.87042781 Z" id="XMLID_724_"></path>
                        <path d="M272.112754,62.5198396 C272.112754,62.5198396 273.494198,65.2637166 272.087406,67.735107 L269.609679,68.0266043 C269.609679,68.0266043 270.762995,66.6895187 270.18,63.3626471 L272.112754,62.5198396 Z" id="XMLID_715_"></path>
                        <path d="M37.8693048,52.6722995 C37.8693048,52.6722995 39.605615,49.8143583 38.293877,47.0071123 L35.6323797,46.4748128 C35.6323797,46.4748128 36.7730214,48.0273529 35.8478342,51.5823529 L37.8693048,52.6722995 Z" id="XMLID_732_"></path>
                        <path d="M113.664909,0.652700535 C113.664909,0.652700535 113.626925,3.71975936 115.977914,5.32299465 L118.328904,4.49286096 C118.328904,4.49286096 116.700321,3.79580214 115.768797,0.557647059 L113.664909,0.652700535 Z" id="XMLID_726_"></path>
                        <path d="M1.54620321,88.0702139 C1.54620321,88.0702139 4.23304813,86.5810428 4.46117647,83.7484492 L2.57911765,82.1135294 C2.57911765,82.1135294 2.7818984,83.8688503 0.424572193,86.2895455 L1.54620321,88.0702139 Z" id="XMLID_723_"></path>
                        <path d="M14.0869251,113.335428 C14.0869251,113.335428 11.4000802,111.846257 11.1719519,109.013663 L13.0540107,107.378743 C13.0540107,107.378743 12.8512299,109.134064 15.2085561,111.554759 L14.0869251,113.335428 Z" id="XMLID_704_"></path>
                        <path d="M18.3009626,107.137941 C18.3009626,107.137941 17.1476471,104.292674 18.7508824,101.941684 L21.2412834,101.852968 C21.2412834,101.852968 19.9802406,103.095 20.2907487,106.453556 L18.3009626,107.137941 Z" id="XMLID_710_"></path>
                    </g>
                    <g transform="translate(4.435829, 3.802139)" fill="#27DEBF">
                        <path d="M210.879305,0.101390374 C210.879305,0.101390374 210.708209,3.1684492 212.983155,4.87307487 L215.372166,4.15066845 C215.372166,4.15066845 213.775267,3.38390374 212.983155,0.107727273 L210.879305,0.107727273 L210.879305,0.101390374 Z" id="XMLID_836_"></path>
                        <path d="M272.91754,21.6088235 C272.91754,21.6088235 274.311658,24.3463636 272.91754,26.8240909 L270.439813,27.128262 C270.439813,27.128262 271.586791,25.7848396 270.991123,22.4643048 L272.91754,21.6088235 Z" id="XMLID_833_"></path>
                        <path d="M232.36139,28.5223797 C232.36139,28.5223797 230.111791,26.4375401 230.561711,23.6302941 L232.779626,22.4896524 C232.779626,22.4896524 232.164947,24.1499198 233.875909,27.0585561 L232.36139,28.5223797 Z" id="XMLID_740_"></path>
                        <path d="M244.870428,77.5446257 C244.870428,77.5446257 246.21385,80.3075134 244.769037,82.759893 L242.29131,83.013369 C242.29131,83.013369 243.463636,81.6889572 242.931337,78.3620856 L244.870428,77.5446257 Z" id="XMLID_832_"></path>
                        <path d="M261.764599,104.425749 C261.764599,104.425749 260.871096,101.491765 262.683449,99.292861 L265.17385,99.4322727 C265.17385,99.4322727 263.450214,100.64262 263.456551,104.01385 L261.764599,104.425749 Z" id="XMLID_824_"></path>
                        <path d="M258.836952,112.378556 C258.836952,112.378556 256.200802,110.807005 256.055053,107.968075 L257.987807,106.390187 C257.987807,106.390187 258.013155,108.791872 259.806497,110.933743 L258.836952,112.378556 Z" id="XMLID_823_"></path>
                        <path d="M98.9379947,15.715508 C98.9379947,15.715508 100.268743,18.4847326 98.8175936,20.9307754 L96.3335294,21.1715775 C96.3335294,21.1715775 97.5121925,19.8535027 96.9925668,16.5202941 L98.9379947,15.715508 Z" id="XMLID_796_"></path>
                        <path d="M1.95176471,55.9991711 C1.95176471,55.9991711 4.30275401,54.0283957 3.99858289,51.202139 L1.83770053,49.9537701 C1.83770053,49.9537701 2.37,51.639385 0.51328877,54.4593048 L1.95176471,55.9991711 Z" id="XMLID_762_"></path>
                        <path d="M4.11898396,140.032781 C4.11898396,140.032781 4.79069519,143.815909 8.06053476,145.241711 L10.7600535,143.67016 C10.7600535,143.67016 8.59917112,143.194893 6.68542781,139.424439 L4.11898396,140.032781 Z" id="XMLID_744_"></path>
                        <path d="M25.132139,73.2291979 C25.132139,73.2291979 24.9927273,76.2962567 27.2866845,77.9755348 L29.6630214,77.2277807 C29.6630214,77.2277807 27.692246,76.4800267 26.8684492,73.2101872 L25.132139,73.2291979 Z" id="XMLID_720_"></path>
                    </g>
                    <g opacity="0.25" transform="translate(4.435829, 3.802139)" fill="#CDE9FF">
                        <path d="M210.879305,0.101390374 C210.879305,0.101390374 210.708209,3.1684492 212.983155,4.87307487 L215.372166,4.15066845 C215.372166,4.15066845 213.775267,3.38390374 212.983155,0.107727273 L210.879305,0.107727273 L210.879305,0.101390374 Z" id="XMLID_808_"></path>
                        <path d="M272.91754,21.6088235 C272.91754,21.6088235 274.311658,24.3463636 272.91754,26.8240909 L270.439813,27.128262 C270.439813,27.128262 271.586791,25.7848396 270.991123,22.4643048 L272.91754,21.6088235 Z" id="XMLID_806_"></path>
                        <path d="M232.36139,28.5223797 C232.36139,28.5223797 230.111791,26.4375401 230.561711,23.6302941 L232.779626,22.4896524 C232.779626,22.4896524 232.164947,24.1499198 233.875909,27.0585561 L232.36139,28.5223797 Z" id="XMLID_804_"></path>
                        <path d="M244.870428,77.5446257 C244.870428,77.5446257 246.21385,80.3075134 244.769037,82.759893 L242.29131,83.013369 C242.29131,83.013369 243.463636,81.6889572 242.931337,78.3620856 L244.870428,77.5446257 Z" id="XMLID_803_"></path>
                        <path d="M261.764599,104.425749 C261.764599,104.425749 260.871096,101.491765 262.683449,99.292861 L265.17385,99.4322727 C265.17385,99.4322727 263.450214,100.64262 263.456551,104.01385 L261.764599,104.425749 Z" id="XMLID_800_"></path>
                        <path d="M258.836952,112.378556 C258.836952,112.378556 256.200802,110.807005 256.055053,107.968075 L257.987807,106.390187 C257.987807,106.390187 258.013155,108.791872 259.806497,110.933743 L258.836952,112.378556 Z" id="XMLID_799_"></path>
                        <path d="M98.9379947,15.715508 C98.9379947,15.715508 100.268743,18.4847326 98.8175936,20.9307754 L96.3335294,21.1715775 C96.3335294,21.1715775 97.5121925,19.8535027 96.9925668,16.5202941 L98.9379947,15.715508 Z" id="XMLID_798_"></path>
                        <path d="M1.95176471,55.9991711 C1.95176471,55.9991711 4.30275401,54.0283957 3.99858289,51.202139 L1.83770053,49.9537701 C1.83770053,49.9537701 2.37,51.639385 0.51328877,54.4593048 L1.95176471,55.9991711 Z" id="XMLID_797_"></path>
                        <path d="M4.11898396,140.032781 C4.11898396,140.032781 4.79069519,143.815909 8.06053476,145.241711 L10.7600535,143.67016 C10.7600535,143.67016 8.59917112,143.194893 6.68542781,139.424439 L4.11898396,140.032781 Z" id="XMLID_767_"></path>
                        <path d="M25.132139,73.2291979 C25.132139,73.2291979 24.9927273,76.2962567 27.2866845,77.9755348 L29.6630214,77.2277807 C29.6630214,77.2277807 27.692246,76.4800267 26.8684492,73.2101872 L25.132139,73.2291979 Z" id="XMLID_763_"></path>
                    </g>
                </g>
                <g id="Group" transform="translate(112.727273, 87.449198)">
                    <path d="M70.8021658,30.7212834 L70.8021658,30.7212834 L70.8021658,30.7212834 C70.8591979,30.7909893 72.532139,32.6477005 73.5587166,32.8885027 C74.6740107,33.1546524 76.0237701,31.6781551 76.0744652,31.5894385 C76.0744652,31.5894385 78.9007219,29.4665775 75.9984225,24.5047861 C75.6435561,23.8964439 74.8894652,23.6556417 74.2431016,23.9344652 C73.7868449,24.1309091 73.3622727,24.3146791 73.3179144,24.3400267 L73.3179144,24.3400267 L73.3179144,24.3400267 C73.0074064,24.511123 72.7349198,24.7709358 72.5574866,25.1067914 L70.6374064,28.6554545 C70.2698663,29.3271658 70.3585829,30.1382888 70.8021658,30.7212834 Z" id="Path" fill="#D7AEB2"></path>
                    <polygon id="Path" fill="#D0D4E9" points="68.5969251 32.4385829 70.5296791 30.1763102 74.2747861 32.679385 72.5764973 35.3535561"></polygon>
                    <path d="M7.23673797,50.8409358 L7.23673797,50.8409358 L7.23673797,50.8409358 C7.19237968,50.7712299 7.14168449,50.7015241 7.08465241,50.6381551 C6.44462567,49.643262 2.49040107,49.3834492 2.49040107,49.3834492 C2.42703209,49.4531551 0.221791444,52.8307219 0.221791444,52.8307219 C-0.215454545,53.5404545 0.532299465,54.9155615 1.26104278,55.9674866 C1.85671123,56.8229679 2.94665775,57.1841711 3.92887701,56.8483155 L4.04927807,56.8039572 C4.15700535,56.7786096 4.26473262,56.7405882 4.36612299,56.6962299 L4.36612299,56.6962299 L4.36612299,56.6962299 C4.67663102,56.5568182 4.94911765,56.3350267 5.1455615,56.0308556 L7.23040107,52.8180481 C7.64229947,52.203369 7.61695187,51.4239305 7.23673797,50.8409358 Z" id="Path" fill="#D7AEB2"></path>
                    <path d="M41.5066845,22.6544118 C41.5066845,22.6544118 42.2290909,28.6047594 42.3114706,29.4412299 C42.3114706,29.4412299 40.1695989,32.7174064 39.0099465,32.6857219 C37.2799733,32.6413636 34.3333155,27.565508 34.3333155,27.565508 C34.3333155,27.565508 35.8921925,24.6315241 35.5753476,20.2780749 L41.5066845,22.6544118 Z" id="Path" fill="url(#linearGradient-1)"></path>
                    <path d="M44.7955348,23.7697059 C44.7955348,23.7697059 34.555107,24.2386364 34.3586631,17.8573797 C34.1622193,11.476123 32.7110695,7.23673797 39.2444118,6.67275401 C45.7714171,6.10243316 47.1211765,8.49778075 47.7041711,10.6143048 C48.2871658,12.724492 47.4570321,23.4845455 44.7955348,23.7697059 Z" id="Path" fill="#D7AEB2"></path>
                    <path d="M34.365,17.8573797 C34.365,17.8573797 35.1317647,9.34058824 44.2505615,9.64475936 C53.3756952,9.94893048 49.4278075,1.32441176 41.5890642,0.0506951872 C41.5890642,0.0506951872 42.4065241,3.09240642 37.4764171,3.5740107 C27.128262,4.57524064 33.4461497,16.5012834 34.365,17.8573797 Z" id="Path" fill="#0A4971"></path>
                    <path d="M72.5764973,35.3535561 C72.5764973,35.3535561 71.3724866,37.2546257 68.5779144,40.5181283 C67.6907487,41.5573797 66.6831818,42.5459358 65.5868984,43.3317112 C65.1306417,43.6612299 64.5222995,44.155508 63.9646524,44.2632353 C57.4693316,45.5686364 48.3822193,38.4966578 48.3822193,38.4966578 C48.3822193,38.4966578 48.3758824,38.5093316 48.3568717,38.5346791 C48.0146791,39.105 44.9476203,49.6876203 38.1481283,65.7199733 C38.1481283,65.7199733 36.7666845,67.1457754 28.129492,65.0102406 C25.879893,64.4525936 23.8394118,63.5210695 22.1601337,62.5641979 C19.2388235,60.8975936 17.4074599,59.1486096 17.4074599,59.1486096 C17.4074599,59.1486096 23.7760428,48.0970588 24.0295187,35.6387166 L24.0295187,35.6260428 C24.0295187,35.6260428 16.0577005,37.92 12.8829144,37.8376203 C12.8829144,37.8376203 11.0895722,45.2391176 7.80072193,47.8689305 C6.83751337,48.6420321 3.33954545,46.3607487 3.33954545,46.3607487 L6.23550802,34.4663904 C6.42561497,33.7566578 6.90721925,33.1609893 7.56625668,32.8314706 C11.1339305,31.057139 22.9839305,25.3285829 28.5287166,24.5935027 C28.5287166,24.5935027 29.9291711,23.9344652 34.9416578,24.5491444 C35.7464439,24.6441979 34.7578877,27.5718449 38.3128877,28.1485027 C42.533262,28.8328877 41.1771658,25.5947326 42.0770053,25.7848396 C43.4774599,26.0763369 44.5610695,26.3678342 45.9361765,26.7670588 C47.273262,27.1599465 48.5469786,27.7429412 49.7129679,28.5097059 C53.1095455,30.7402941 60.3526203,35.613369 61.8227807,37.4257219 C61.8227807,37.4257219 65.3587701,34.1432086 68.5969251,32.4385829 L72.5764973,35.3535561 Z" id="Path" fill="#DEE2F1"></path>
                    <path d="M38.1544652,28.0344385 L40.9046791,28.0344385 C40.9046791,28.0344385 41.2341979,28.1421658 41.1264706,28.566738 C41.0124064,28.9849733 39.9985027,30.0495722 39.6499733,30.0749198 C39.3077807,30.1002674 37.3306684,28.7441711 38.1544652,28.0344385 Z" id="Path" fill="#0D4870"></path>
                    <path d="M41.7791711,24.9103476 C41.7791711,24.9103476 41.1835027,27.1155882 39.6879947,27.9710695 L41.284893,30.9430749 C41.284893,30.9430749 44.0858021,28.5604011 44.3646257,26.4692246 C44.3582888,26.4692246 42.4191979,25.0941176 41.7791711,24.9103476 Z" id="Path" fill="#D0D4E9"></path>
                    <path d="M41.7791711,24.9103476 C41.7791711,24.9103476 41.3229144,27.007861 39.8274064,27.8633422 L41.3799465,30.5818717 C41.3799465,30.5818717 43.9337166,28.4590107 44.4977005,26.3614973 C44.4977005,26.3614973 42.4191979,25.0941176 41.7791711,24.9103476 Z" id="Path" fill="#DEE2F1"></path>
                    <path d="M35.2141444,23.8394118 C35.2141444,23.8394118 37.8376203,27.2866845 39.8274064,27.8570053 L38.0910963,31.2409091 C38.0910963,31.2409091 32.4005615,26.507246 32.7364171,24.3653743 C32.7364171,24.3653743 34.5487701,23.7506952 35.2141444,23.8394118 Z" id="Path" fill="#D0D4E9"></path>
                    <path d="M35.4549465,23.763369 C35.4549465,23.763369 37.8376203,27.2930214 39.8274064,27.8633422 L38.1734759,30.8606952 C38.1734759,30.8606952 32.6413636,26.4312032 32.9835561,24.2893316 C32.9772193,24.2893316 34.7959091,23.6683155 35.4549465,23.763369 Z" id="Path" fill="#DEE2F1"></path>
                    <polygon id="Path" fill="#D0D4E9" points="7.79438503 47.8689305 6.67275401 50.6254813 2.33197861 49.4341444 3.33954545 46.3607487"></polygon>
                    <path d="M26.7417112,58.1790642 C25.1258021,60.1815241 23.6302941,61.7150535 22.1601337,62.5705348 C19.2388235,60.9039305 17.4074599,59.1549465 17.4074599,59.1549465 C17.4074599,59.1549465 23.7760428,48.1033957 24.0295187,35.6450535 C25.0370856,35.1190909 26.0636631,34.8466043 26.7100267,35.3789037 C28.3702941,36.7413369 29.4032086,54.8775401 26.7417112,58.1790642 Z" id="Path" fill="#D0D4E9"></path>
                    <path d="M39.1366845,29.9481818 C39.1366845,29.9481818 38.3635829,33.4144652 35.239492,37.7742513 C30.6135561,44.2252139 24.7645989,49.3390909 16.8751604,49.5672193 C16.8751604,49.5672193 14.7776471,49.643262 12.350615,51.4175936 C12.350615,51.4175936 14.2897059,54.2185027 15.8802674,54.4086096 C28.6491176,55.9611497 39.9604813,42.596631 40.1760862,29.8214439 C40.1886096,29.3905348 39.3964973,29.4792513 39.1366845,29.9481818 Z" id="Path" fill="#0B528C"></path>
                    <path d="M68.5779144,40.5181283 C67.6907487,41.5573797 66.6831818,42.5459358 65.5868984,43.3317112 C65.1306417,43.6612299 64.5222995,44.155508 63.9646524,44.2632353 C57.4693316,45.5686364 48.3822193,38.4966578 48.3822193,38.4966578 C48.3822193,38.4966578 48.3758824,38.5093316 48.3568717,38.5346791 C48.1540909,37.6791979 49.3517647,36.7666845 50.0108021,36.7603428 C53.0588503,36.7540107 61.1574064,42.9895187 62.5451872,42.7487166 C63.6414706,42.5649465 67.2915241,40.7462567 68.5779144,40.5181283 Z" id="Path" fill="#D0D4E9"></path>
                </g>
            </g>
        </g>
    </g>
</svg>